<svg width="143" height="142" viewBox="0 0 143 142" fill="none" xmlns="http://www.w3.org/2000/svg">
<path d="M139.109 72.3212L139.479 72.6575L139.109 72.3212ZM139.921 74.7007L139.64 75.1141L139.921 74.7007ZM142.159 77.1853L142.635 77.031L142.159 77.1853ZM140.384 79.3466L140.581 79.8066L140.384 79.3466ZM138.951 81.5524L139.384 81.3014L138.951 81.5524ZM140.067 84.0982L140.546 83.9569L140.067 84.0982ZM138.834 88.6237L139.166 88.9974L138.834 88.6237ZM136.888 92.9594L136.433 93.1652L136.888 92.9594ZM135.758 94.979L135.604 94.5033L135.758 94.979ZM130.691 105.375L130.334 105.025L130.691 105.375ZM126.961 108.427L127.222 108.853L126.961 108.427ZM127.028 111.309L127.474 111.084L127.028 111.309ZM125.952 113.313L126.004 112.815L125.952 113.313ZM124.237 114.986L124.721 114.862L124.237 114.986ZM123.013 116.929L123.001 116.429L123.013 116.929ZM120.025 123.983L119.673 123.628L120.025 123.983ZM116.653 123.72L116.45 124.177L116.653 123.72ZM114.311 124.651L114.809 124.609L114.311 124.651ZM113.291 127.075L113.443 127.551L113.291 127.075ZM102.582 131.83L102.384 132.289L102.582 131.83ZM97.4881 137.69L97.4344 137.193L97.4881 137.69ZM94.6051 136.705L94.8867 136.292L94.6051 136.705ZM91.9766 136.274L91.6901 135.865L91.9766 136.274ZM89.874 137.257L89.7469 136.774L89.874 137.257ZM87.6437 137.853L87.5126 137.371L87.6437 137.853ZM85.6786 139.834L86.1245 140.061L85.6786 139.834ZM80.8999 139.771L80.4391 139.577L80.8999 139.771ZM73.9623 139.514L74.3138 139.159V139.159L73.9623 139.514ZM71.6328 138.21L71.5796 138.707L71.6328 138.21ZM69.3766 138.036L69.4 137.537L69.3766 138.036ZM67.0048 139.564L67.3972 139.874L67.0048 139.564ZM62.1767 141.177L61.9599 140.727L62.1767 141.177ZM59.9266 140.433L59.5208 140.726L59.9266 140.433ZM55.2441 139.676L55.1478 140.167L55.2441 139.676ZM53.0226 138.855L53.2667 138.419L53.0226 138.855ZM48.604 137.274L48.1659 137.515L48.604 137.274ZM44.7745 134.206L44.7688 134.706L44.7745 134.206ZM42.3488 133.995L42.2673 134.489L42.3488 133.995ZM40.5621 132.425L41.0204 132.225L40.5621 132.425ZM36.5354 130.127L36.3829 129.651L36.5354 130.127ZM32.4053 128.032L32.2836 127.547L32.4053 128.032ZM30.5923 126.671L31.0911 126.636L30.5923 126.671ZM27.0589 123.689L27.5527 123.61L27.0589 123.689ZM26.1741 121.209L25.7572 121.485L26.1741 121.209ZM24.617 119.555L24.3183 119.956L24.617 119.555ZM21.7839 119.13L21.7183 118.634V118.634L21.7839 119.13ZM19.2127 118.381L18.7932 118.653L19.2127 118.381ZM17.5424 110.835L17.047 110.903L17.5424 110.835ZM16.4405 108.853L16.1352 109.249L16.4405 108.853ZM11.9774 106.299L11.876 106.788L11.9774 106.299ZM11.3287 104.075L10.8903 103.835L11.3287 104.075ZM7.94509 100.594L7.528 100.319L7.94509 100.594ZM5.05229 96.6391L5.30464 96.2074L5.05229 96.6391ZM4.2666 94.4266L4.7359 94.5991L4.2666 94.4266ZM3.52577 87.2423L3.23595 87.6498L3.52577 87.2423ZM3.03329 75.6241L2.69417 75.9915L3.03329 75.6241ZM1.455 71.075L1.15417 70.6756L1.455 71.075ZM1.27581 66.3659L0.984236 65.9597L1.27581 66.3659ZM2.97119 64.1486L3.4642 64.2319L2.97119 64.1486ZM1.55229 61.6007L1.8815 61.2243L1.55229 61.6007ZM0.829672 59.1246L1.21382 59.4446L0.829672 59.1246ZM11.9855 38.365L11.5123 38.5266V38.5266L11.9855 38.365ZM10.9333 35.0797L10.4544 35.2234L10.9333 35.0797ZM11.8553 32.9105L11.6928 32.4376L11.8553 32.9105ZM15.2972 32.4312L15.2946 32.9312L15.2972 32.4312ZM15.869 29.9153L15.4349 30.1634L15.869 29.9153ZM15.8914 27.0401L15.7758 26.5536L15.8914 27.0401ZM17.7552 25.4755L18.2305 25.6308L17.7552 25.4755ZM19.7283 24.1145L19.7742 24.6124L19.7283 24.1145ZM26.7261 21.3998L26.8796 21.8756L26.7261 21.3998ZM28.7242 20.279L28.3905 19.9066L28.7242 20.279ZM29.8416 18.0615L30.3324 18.157L29.8416 18.0615ZM31.7291 12.8557L31.8845 12.3805L31.7291 12.8557ZM35.2704 14.0393L35.4322 13.5662L35.2704 14.0393ZM38.9791 11.3001L39.3561 11.6285L38.9791 11.3001ZM44.2493 6.13655L43.9055 5.7735L44.2493 6.13655ZM48.8532 4.96822L48.4548 4.66607L48.8532 4.96822ZM50.7703 3.21415L51.0236 3.64525L50.7703 3.21415ZM53.5208 4.46603L53.1497 4.80112L53.5208 4.46603ZM58.0304 3.26335L57.7518 3.67858L58.0304 3.26335ZM69.567 1.56646L69.9433 1.23713L69.567 1.56646ZM78.8659 2.66773L78.715 3.14441L78.8659 2.66773ZM81.317 2.08299L81.6069 2.49036L81.317 2.08299ZM88.3011 3.15313L88.0504 2.72049L88.3011 3.15313ZM90.8258 2.82447L91.0309 2.3685L90.8258 2.82447ZM94.4074 7.01493L94.4881 7.50839L94.4074 7.01493ZM105.636 10.3369L105.966 9.96115L105.636 10.3369ZM106.951 12.6626L106.468 12.7926L106.951 12.6626ZM111.371 14.392L110.873 14.4306L111.371 14.392ZM118.978 23.2907L118.63 23.6497L118.978 23.2907ZM124.457 27.5758L123.987 27.4043L124.457 27.5758ZM126.783 31.6782L126.8 32.1779L126.783 31.6782ZM128.357 33.3248L127.877 33.1839L128.357 33.3248ZM127.987 36.277L128.484 36.2228L127.987 36.277ZM133.458 38.5022L133.359 38.9924L133.458 38.5022ZM135.1 42.9027L134.616 42.7755L135.1 42.9027ZM136.199 47.5282L136.565 47.1879L136.199 47.5282ZM135.849 54.8039L136.264 54.5244L135.849 54.8039ZM137.442 56.7595L137.803 56.4137L137.442 56.7595ZM138.99 58.7918L138.558 59.0439L138.99 58.7918ZM139.216 61.084L138.74 60.9305L139.216 61.084ZM137.847 63.5582L137.453 63.2506L137.847 63.5582ZM137.291 65.8913L136.824 66.0703L137.291 65.8913ZM139.109 72.3212L138.739 71.985C138.306 72.4619 138.118 73.0335 138.326 73.642C138.514 74.194 138.999 74.6778 139.64 75.1141L139.921 74.7007L140.202 74.2873C139.618 73.8899 139.355 73.5602 139.272 73.319C139.209 73.1344 139.229 72.9331 139.479 72.6575L139.109 72.3212ZM139.921 74.7007L139.64 75.1141C140.832 75.9256 141.468 76.6747 141.684 77.3396L142.159 77.1853L142.635 77.031C142.317 76.0507 141.46 75.1433 140.202 74.2873L139.921 74.7007ZM142.159 77.1853L141.684 77.3396C141.76 77.5743 141.727 77.7846 141.529 78.0253C141.308 78.2943 140.884 78.59 140.188 78.8867L140.384 79.3466L140.581 79.8066C141.335 79.485 141.931 79.1113 142.302 78.6599C142.696 78.1802 142.826 77.619 142.635 77.031L142.159 77.1853ZM140.384 79.3466L140.188 78.8867C139.435 79.2077 138.841 79.5951 138.519 80.0894C138.352 80.3468 138.259 80.6334 138.263 80.9405C138.266 81.2438 138.362 81.5335 138.519 81.8034L138.951 81.5524L139.384 81.3014C139.293 81.1452 139.264 81.0234 139.263 80.9298C139.262 80.8401 139.286 80.7444 139.358 80.6342C139.514 80.3932 139.883 80.1038 140.581 79.8066L140.384 79.3466ZM138.951 81.5524L138.519 81.8034C138.996 82.6252 139.351 83.4371 139.587 84.2395L140.067 84.0982L140.546 83.9569C140.285 83.0695 139.896 82.1842 139.384 81.3014L138.951 81.5524ZM140.067 84.0982L139.587 84.2395C139.814 85.0105 139.84 85.7304 139.68 86.4091L140.166 86.524L140.653 86.639C140.858 85.7731 140.817 84.8758 140.546 83.9569L140.067 84.0982ZM140.166 86.524L139.68 86.4091C139.525 87.0634 139.146 87.6775 138.502 88.2499L138.834 88.6237L139.166 88.9974C139.934 88.3149 140.443 87.5293 140.653 86.639L140.166 86.524ZM138.834 88.6237L138.502 88.2499C137.776 88.8943 137.146 89.5546 136.613 90.2314L137.006 90.5408L137.399 90.8502C137.891 90.2257 138.479 89.6079 139.166 88.9974L138.834 88.6237ZM137.006 90.5408L136.613 90.2314C135.952 91.0707 135.947 92.0884 136.433 93.1652L136.888 92.9594L137.344 92.7537C136.962 91.907 137.035 91.3124 137.399 90.8502L137.006 90.5408ZM136.888 92.9594L136.433 93.1652C136.61 93.5588 136.58 93.7902 136.495 93.9414C136.397 94.1172 136.148 94.327 135.604 94.5033L135.758 94.979L135.912 95.4546C136.556 95.2462 137.089 94.9272 137.368 94.4298C137.66 93.9078 137.601 93.3218 137.344 92.7537L136.888 92.9594ZM135.758 94.979L135.604 94.5033C134.369 94.9033 133.447 95.4851 132.999 96.3211L133.44 96.5573L133.88 96.7936C134.148 96.2943 134.772 95.8238 135.912 95.4546L135.758 94.979ZM133.44 96.5573L132.999 96.3211C132.555 97.1487 132.564 98.1263 132.915 99.1901L133.39 99.0332L133.865 98.8763C133.567 97.9742 133.608 97.3012 133.88 96.7936L133.44 96.5573ZM133.39 99.0332L132.915 99.1901C133.229 100.139 133.413 101.04 133.47 101.895L133.969 101.861L134.468 101.827C134.404 100.878 134.201 99.8935 133.865 98.8763L133.39 99.0332ZM133.969 101.861L133.47 101.895C133.495 102.263 133.427 102.553 133.29 102.787C133.151 103.023 132.921 103.24 132.564 103.425L132.793 103.869L133.023 104.313C133.51 104.061 133.899 103.725 134.153 103.292C134.407 102.857 134.504 102.361 134.468 101.827L133.969 101.861ZM132.793 103.869L132.564 103.425C131.681 103.881 130.934 104.413 130.334 105.025L130.691 105.375L131.048 105.725C131.561 105.202 132.216 104.73 133.023 104.313L132.793 103.869ZM130.691 105.375L130.334 105.025C129.788 105.581 129.215 106.113 128.615 106.62L128.938 107.002L129.26 107.384C129.884 106.857 130.48 106.304 131.048 105.725L130.691 105.375ZM128.938 107.002L128.615 106.62C128.023 107.121 127.384 107.581 126.699 108.001L126.961 108.427L127.222 108.853C127.949 108.408 128.628 107.918 129.26 107.384L128.938 107.002ZM126.961 108.427L126.699 108.001C126.168 108.327 125.934 108.859 125.948 109.484C125.962 110.074 126.194 110.765 126.582 111.534L127.028 111.309L127.474 111.084C127.111 110.364 126.957 109.831 126.948 109.46C126.94 109.124 127.048 108.96 127.222 108.853L126.961 108.427ZM127.028 111.309L126.582 111.534C126.758 111.883 126.854 112.156 126.891 112.361C126.929 112.567 126.898 112.658 126.881 112.69C126.871 112.708 126.842 112.755 126.709 112.792C126.566 112.832 126.339 112.85 126.004 112.815L125.952 113.313L125.9 113.81C126.299 113.851 126.667 113.843 126.981 113.754C127.305 113.663 127.593 113.478 127.762 113.163C127.925 112.86 127.935 112.515 127.875 112.182C127.814 111.847 127.674 111.479 127.474 111.084L127.028 111.309ZM125.952 113.313L126.004 112.815C125.238 112.736 124.527 112.816 124.073 113.259C123.592 113.728 123.576 114.419 123.753 115.11L124.237 114.986L124.721 114.862C124.574 114.286 124.681 114.063 124.771 113.975C124.889 113.86 125.198 113.737 125.9 113.81L125.952 113.313ZM124.237 114.986L123.753 115.11C123.904 115.7 123.844 116.008 123.751 116.156C123.675 116.277 123.491 116.417 123.001 116.429L123.013 116.929L123.025 117.429C123.675 117.413 124.266 117.215 124.597 116.689C124.912 116.189 124.895 115.54 124.721 114.862L124.237 114.986ZM123.013 116.929L123.001 116.429C122.323 116.445 121.727 116.69 121.438 117.299C121.177 117.847 121.238 118.557 121.459 119.326L121.94 119.187L122.42 119.049C122.216 118.339 122.243 117.933 122.341 117.728C122.409 117.585 122.563 117.44 123.025 117.429L123.013 116.929ZM121.94 119.187L121.459 119.326C121.878 120.785 121.73 121.555 121.374 121.918L121.731 122.268L122.088 122.618C122.86 121.831 122.851 120.547 122.42 119.049L121.94 119.187ZM121.731 122.268L121.374 121.918C120.811 122.491 120.244 123.061 119.673 123.628L120.025 123.983L120.377 124.338C120.951 123.768 121.522 123.195 122.088 122.618L121.731 122.268ZM120.025 123.983L119.673 123.628C119.526 123.773 119.268 123.882 118.791 123.844C118.31 123.807 117.67 123.624 116.856 123.263L116.653 123.72L116.45 124.177C117.311 124.559 118.07 124.791 118.713 124.841C119.36 124.892 119.951 124.76 120.377 124.338L120.025 123.983ZM116.653 123.72L116.856 123.263C116.416 123.068 116.013 122.931 115.652 122.868C115.295 122.805 114.941 122.806 114.627 122.93C114.294 123.063 114.06 123.313 113.929 123.64C113.806 123.949 113.781 124.31 113.812 124.692L114.311 124.651L114.809 124.609C114.784 124.309 114.814 124.12 114.858 124.011C114.895 123.919 114.939 123.883 114.996 123.86C115.073 123.829 115.221 123.807 115.478 123.852C115.731 123.897 116.053 124.001 116.45 124.177L116.653 123.72ZM114.311 124.651L113.812 124.692C113.865 125.334 113.805 125.786 113.679 126.085C113.563 126.363 113.388 126.519 113.139 126.598L113.291 127.075L113.443 127.551C113.987 127.378 114.378 127.004 114.601 126.473C114.815 125.965 114.869 125.331 114.809 124.609L114.311 124.651ZM113.291 127.075L113.139 126.598C112.41 126.831 111.589 126.934 110.67 126.901L110.652 127.4L110.634 127.9C111.649 127.937 112.587 127.824 113.443 127.551L113.291 127.075ZM110.652 127.4L110.67 126.901C110.077 126.879 109.547 127.047 109.149 127.456C108.765 127.851 108.562 128.412 108.479 129.062L108.975 129.125L109.471 129.188C109.539 128.653 109.691 128.333 109.866 128.154C110.027 127.988 110.26 127.886 110.634 127.9L110.652 127.4ZM108.975 129.125L108.479 129.062C108.412 129.59 108.25 129.796 108.117 129.876C107.979 129.958 107.706 130.004 107.184 129.82L107.018 130.292L106.852 130.763C107.484 130.986 108.114 131.041 108.629 130.735C109.148 130.425 109.388 129.845 109.471 129.188L108.975 129.125ZM107.018 130.292L107.184 129.82C106.553 129.598 105.947 129.53 105.418 129.723C104.868 129.924 104.506 130.368 104.297 130.944L104.767 131.115L105.237 131.285C105.375 130.906 105.561 130.735 105.761 130.662C105.983 130.581 106.328 130.579 106.852 130.763L107.018 130.292ZM104.767 131.115L104.297 130.944C104.158 131.328 103.979 131.478 103.805 131.535C103.607 131.6 103.284 131.588 102.779 131.371L102.582 131.83L102.384 132.289C102.99 132.55 103.586 132.659 104.116 132.485C104.671 132.303 105.03 131.856 105.237 131.285L104.767 131.115ZM102.582 131.83L102.779 131.371C102.455 131.231 102.122 131.153 101.798 131.189C101.457 131.227 101.167 131.387 100.949 131.648C100.548 132.127 100.416 132.906 100.416 133.82L100.916 133.82L101.416 133.82C101.416 132.929 101.561 132.475 101.716 132.29C101.775 132.219 101.832 132.191 101.908 132.183C102 132.172 102.153 132.19 102.384 132.289L102.582 131.83ZM100.916 133.82L100.416 133.82C100.416 134.696 100.327 135.355 100.169 135.818C100.012 136.28 99.8081 136.496 99.6095 136.589L99.8223 137.042L100.035 137.494C100.566 137.245 100.908 136.752 101.116 136.14C101.323 135.53 101.416 134.749 101.416 133.82L100.916 133.82ZM99.8223 137.042L99.6095 136.589C98.9321 136.908 98.208 137.109 97.4344 137.193L97.4881 137.69L97.5419 138.187C98.4221 138.092 99.2541 137.861 100.035 137.494L99.8223 137.042ZM97.4881 137.69L97.4344 137.193C96.7782 137.264 95.9385 137.008 94.8867 136.292L94.6051 136.705L94.3235 137.118C95.4619 137.894 96.5442 138.295 97.5419 138.187L97.4881 137.69ZM94.6051 136.705L94.8867 136.292C93.7457 135.514 92.6152 135.218 91.6901 135.865L91.9766 136.274L92.2631 136.684C92.6525 136.412 93.2743 136.403 94.3235 137.118L94.6051 136.705ZM91.9766 136.274L91.6901 135.865C91.0791 136.292 90.4319 136.594 89.7469 136.774L89.874 137.257L90.0011 137.741C90.805 137.529 91.5595 137.176 92.2631 136.684L91.9766 136.274ZM89.874 137.257L89.7469 136.774C89.001 136.97 88.2563 137.169 87.5126 137.371L87.6437 137.853L87.7749 138.336C88.5159 138.134 89.2579 137.936 90.0011 137.741L89.874 137.257ZM87.6437 137.853L87.5126 137.371C86.5682 137.628 85.8253 138.44 85.2327 139.608L85.6786 139.834L86.1245 140.061C86.6674 138.991 87.2346 138.483 87.7749 138.336L87.6437 137.853ZM85.6786 139.834L85.2327 139.608C84.9807 140.105 84.7909 140.125 84.7085 140.117C84.6318 140.109 84.5051 140.067 84.323 139.93C84.1425 139.795 83.9324 139.585 83.6943 139.286L83.3031 139.597L82.9118 139.909C83.1817 140.248 83.4516 140.527 83.723 140.73C83.9929 140.933 84.2901 141.08 84.6093 141.112C85.3187 141.183 85.8088 140.683 86.1245 140.061L85.6786 139.834ZM83.3031 139.597L83.6943 139.286C83.4225 138.944 83.1452 138.666 82.86 138.475C82.5735 138.283 82.2501 138.16 81.9044 138.185C81.1942 138.236 80.7408 138.86 80.4391 139.577L80.8999 139.771L81.3608 139.965C81.6453 139.289 81.8855 139.188 81.9763 139.182C82.0312 139.178 82.1351 139.193 82.3029 139.305C82.4719 139.419 82.6757 139.612 82.9118 139.909L83.3031 139.597ZM80.8999 139.771L80.4391 139.577C80.3042 139.897 80.173 140.112 80.0559 140.244C79.9411 140.373 79.8629 140.4 79.8257 140.405C79.7507 140.417 79.4996 140.375 79.0545 139.802L78.6597 140.109L78.2649 140.416C78.7271 141.01 79.3031 141.495 79.9748 141.394C80.311 141.343 80.5861 141.153 80.8045 140.907C81.0206 140.663 81.2026 140.341 81.3608 139.965L80.8999 139.771ZM78.6597 140.109L79.0545 139.802C78.5792 139.191 78.0611 138.739 77.4878 138.602C76.8567 138.451 76.3009 138.708 75.8601 139.19L76.2291 139.528L76.5981 139.865C76.8704 139.567 77.0762 139.532 77.2553 139.574C77.4921 139.631 77.8328 139.86 78.2649 140.416L78.6597 140.109ZM76.2291 139.528L75.8601 139.19C75.5598 139.519 75.3177 139.61 75.1306 139.609C74.9348 139.608 74.6645 139.505 74.3138 139.159L73.9623 139.514L73.6109 139.87C74.0583 140.312 74.5648 140.606 75.1247 140.609C75.6931 140.612 76.1854 140.316 76.5981 139.865L76.2291 139.528ZM73.9623 139.514L74.3138 139.159C73.4722 138.327 72.5962 137.81 71.686 137.713L71.6328 138.21L71.5796 138.707C72.1792 138.771 72.8562 139.124 73.6109 139.87L73.9623 139.514ZM71.6328 138.21L71.686 137.713C70.9213 137.631 70.1593 137.572 69.4 137.537L69.3766 138.036L69.3533 138.535C70.0924 138.57 70.8345 138.627 71.5796 138.707L71.6328 138.21ZM69.3766 138.036L69.4 137.537C68.3971 137.49 67.468 138.171 66.6124 139.254L67.0048 139.564L67.3972 139.874C68.2056 138.85 68.8578 138.512 69.3533 138.535L69.3766 138.036ZM67.0048 139.564L66.6124 139.254C65.8111 140.269 65.1929 140.487 64.7255 140.37L64.6034 140.855L64.4813 141.339C65.5516 141.609 66.5343 140.967 67.3972 139.874L67.0048 139.564ZM64.6034 140.855L64.7255 140.37C63.8226 140.142 62.8935 140.277 61.9599 140.727L62.1767 141.177L62.3936 141.628C63.1578 141.26 63.8465 141.18 64.4813 141.339L64.6034 140.855ZM62.1767 141.177L61.9599 140.727C61.6282 140.886 61.3633 140.898 61.1344 140.823C60.8931 140.743 60.6209 140.542 60.3324 140.141L59.9266 140.433L59.5208 140.726C59.8835 141.229 60.3119 141.604 60.8206 141.772C61.3418 141.945 61.8764 141.877 62.3936 141.628L62.1767 141.177ZM59.9266 140.433L60.3324 140.141C59.9721 139.641 59.5551 139.262 59.0692 139.058C58.5728 138.85 58.0489 138.844 57.5227 139.015L57.6772 139.49L57.8317 139.966C58.1539 139.861 58.4292 139.874 58.6826 139.98C58.9465 140.091 59.2299 140.322 59.5208 140.726L59.9266 140.433ZM57.6772 139.49L57.5227 139.015C56.7444 139.268 56.02 139.319 55.3404 139.186L55.2441 139.676L55.1478 140.167C56.0155 140.337 56.9132 140.264 57.8317 139.966L57.6772 139.49ZM55.2441 139.676L55.3404 139.186C54.62 139.044 53.9293 138.789 53.2667 138.419L53.0226 138.855L52.7786 139.291C53.5307 139.712 54.3209 140.005 55.1478 140.167L55.2441 139.676ZM53.0226 138.855L53.2667 138.419C52.454 137.964 51.5539 137.819 50.5886 137.969L50.6655 138.463L50.7423 138.957C51.5053 138.839 52.1767 138.955 52.7786 139.291L53.0226 138.855ZM50.6655 138.463L50.5886 137.969C50.257 138.021 49.9865 137.969 49.7519 137.834C49.5097 137.694 49.2675 137.442 49.0421 137.033L48.604 137.274L48.1659 137.515C48.4508 138.032 48.8072 138.443 49.2521 138.7C49.7047 138.961 50.2098 139.04 50.7423 138.957L50.6655 138.463ZM48.604 137.274L49.0421 137.033C48.5126 136.07 47.9215 135.282 47.2625 134.682L46.9259 135.051L46.5892 135.421C47.1474 135.929 47.6751 136.622 48.1659 137.515L48.604 137.274ZM46.9259 135.051L47.2625 134.682C46.563 134.045 45.728 133.717 44.7803 133.706L44.7745 134.206L44.7688 134.706C45.4723 134.714 46.0715 134.949 46.5892 135.421L46.9259 135.051ZM44.7745 134.206L44.7803 133.706C43.9793 133.696 43.196 133.628 42.4302 133.502L42.3488 133.995L42.2673 134.489C43.0846 134.624 43.9185 134.696 44.7688 134.706L44.7745 134.206ZM42.3488 133.995L42.4302 133.502C41.8479 133.406 41.3712 133.029 41.0204 132.225L40.5621 132.425L40.1038 132.625C40.5522 133.653 41.2665 134.323 42.2673 134.489L42.3488 133.995ZM40.5621 132.425L41.0204 132.225C40.5982 131.257 40.0582 130.485 39.3848 129.938L39.0697 130.326L38.7546 130.715C39.2719 131.134 39.7269 131.761 40.1038 132.625L40.5621 132.425ZM39.0697 130.326L39.3848 129.938C38.6015 129.302 37.5527 129.276 36.3829 129.651L36.5354 130.127L36.6879 130.603C37.7065 130.277 38.3471 130.384 38.7546 130.715L39.0697 130.326ZM36.5354 130.127L36.3829 129.651C35.8966 129.807 35.6006 129.778 35.4239 129.691C35.2593 129.611 35.0891 129.427 34.978 129.003L34.4944 129.13L34.0108 129.257C34.1661 129.849 34.4694 130.338 34.9851 130.59C35.4888 130.836 36.0801 130.798 36.6879 130.603L36.5354 130.127ZM34.4944 129.13L34.978 129.003C34.8215 128.408 34.5149 127.92 34.0049 127.652C33.506 127.39 32.9104 127.39 32.2836 127.547L32.4053 128.032L32.5271 128.517C33.0264 128.392 33.3421 128.434 33.5396 128.537C33.7259 128.635 33.9007 128.838 34.0108 129.257L34.4944 129.13ZM32.4053 128.032L32.2836 127.547C31.7873 127.672 31.5362 127.601 31.4077 127.504C31.2747 127.404 31.1281 127.17 31.0911 126.636L30.5923 126.671L30.0935 126.705C30.139 127.362 30.3358 127.95 30.8072 128.304C31.283 128.661 31.8972 128.675 32.5271 128.517L32.4053 128.032ZM30.5923 126.671L31.0911 126.636C31.0455 125.979 30.8602 125.401 30.4485 125.008C30.0252 124.604 29.455 124.481 28.8351 124.542L28.8837 125.04L28.9323 125.537C29.3689 125.495 29.6118 125.592 29.758 125.732C29.9158 125.882 30.0565 126.172 30.0935 126.705L30.5923 126.671ZM28.8837 125.04L28.8351 124.542C28.3805 124.586 28.1033 124.504 27.9326 124.377C27.7657 124.254 27.6193 124.028 27.5527 123.61L27.0589 123.689L26.5652 123.767C26.6585 124.353 26.8962 124.854 27.3376 125.181C27.7751 125.505 28.3303 125.596 28.9323 125.537L28.8837 125.04ZM27.0589 123.689L27.5527 123.61C27.3848 122.556 27.0705 121.657 26.591 120.933L26.1741 121.209L25.7572 121.485C26.1376 122.06 26.4132 122.814 26.5652 123.767L27.0589 123.689ZM26.1741 121.209L26.591 120.933C26.1301 120.237 25.5714 119.643 24.9156 119.154L24.617 119.555L24.3183 119.956C24.8789 120.374 25.3583 120.882 25.7572 121.485L26.1741 121.209ZM24.617 119.555L24.9156 119.154C24.1502 118.584 23.0433 118.459 21.7183 118.634L21.7839 119.13L21.8495 119.626C23.0856 119.462 23.8674 119.621 24.3183 119.956L24.617 119.555ZM21.7839 119.13L21.7183 118.634C20.4997 118.796 19.9048 118.529 19.6323 118.109L19.2127 118.381L18.7932 118.653C19.3878 119.57 20.507 119.803 21.8495 119.626L21.7839 119.13ZM19.2127 118.381L19.6323 118.109C19.3063 117.606 19.2049 116.81 19.4777 115.616L18.9903 115.504L18.5028 115.393C18.2051 116.697 18.252 117.819 18.7932 118.653L19.2127 118.381ZM18.9903 115.504L19.4777 115.616C19.7748 114.315 19.6779 113.191 18.901 112.494L18.5669 112.866L18.2329 113.238C18.591 113.56 18.7763 114.195 18.5028 115.393L18.9903 115.504ZM18.5669 112.866L18.901 112.494C18.432 112.073 18.1392 111.509 18.0378 110.767L17.5424 110.835L17.047 110.903C17.1765 111.85 17.5668 112.64 18.2329 113.238L18.5669 112.866ZM17.5424 110.835L18.0378 110.767C17.9062 109.806 17.4788 109.022 16.7458 108.457L16.4405 108.853L16.1352 109.249C16.6404 109.638 16.9475 110.176 17.047 110.903L17.5424 110.835ZM16.4405 108.853L16.7458 108.457C16.1294 107.981 15.5128 107.496 14.8962 107.001L14.5833 107.391L14.2703 107.781C14.8919 108.28 15.5135 108.769 16.1352 109.249L16.4405 108.853ZM14.5833 107.391L14.8962 107.001C14.1944 106.438 13.2427 106.05 12.0787 105.809L11.9774 106.299L11.876 106.788C12.9483 107.01 13.7339 107.351 14.2703 107.781L14.5833 107.391ZM11.9774 106.299L12.0787 105.809C11.6044 105.711 11.4901 105.544 11.4566 105.429C11.4067 105.258 11.4393 104.914 11.7671 104.316L11.3287 104.075L10.8903 103.835C10.5324 104.488 10.3303 105.139 10.4966 105.709C10.6792 106.335 11.2321 106.655 11.876 106.788L11.9774 106.299ZM11.3287 104.075L11.7671 104.316C11.9568 103.97 12.0856 103.622 12.1017 103.287C12.1187 102.93 12.0062 102.599 11.743 102.343C11.4973 102.104 11.162 101.971 10.8029 101.9C10.4388 101.827 10.0045 101.808 9.51122 101.83L9.53431 102.33L9.55741 102.829C10.0051 102.809 10.3513 102.829 10.6072 102.88C10.8681 102.932 10.9924 103.007 11.0458 103.059C11.0816 103.094 11.1077 103.137 11.1028 103.239C11.097 103.362 11.0434 103.556 10.8903 103.835L11.3287 104.075ZM9.53431 102.33L9.51122 101.83C9.06262 101.851 8.72191 101.831 8.47623 101.78C8.22349 101.729 8.1252 101.657 8.09429 101.624C8.08379 101.612 8.05828 101.589 8.07544 101.482C8.09592 101.354 8.17444 101.154 8.36218 100.87L7.94509 100.594L7.528 100.319C7.3045 100.657 7.1408 100.995 7.0881 101.323C7.03208 101.672 7.10241 102.021 7.35678 102.299C7.59074 102.554 7.92636 102.689 8.27654 102.76C8.63379 102.833 9.06502 102.852 9.55741 102.829L9.53431 102.33ZM7.94509 100.594L8.36218 100.87C8.79266 100.219 9.05777 99.5828 9.01793 98.996C8.97408 98.35 8.57501 97.8923 7.98615 97.6158L7.77362 98.0684L7.56109 98.521C7.90902 98.6844 8.00692 98.8677 8.02023 99.0637C8.03755 99.3189 7.92 99.7257 7.528 100.319L7.94509 100.594ZM7.77362 98.0684L7.98615 97.6158C7.06269 97.1822 6.16888 96.7127 5.30464 96.2074L5.05229 96.6391L4.79994 97.0707C5.69056 97.5914 6.61097 98.0748 7.56109 98.521L7.77362 98.0684ZM5.05229 96.6391L5.30464 96.2074C4.93682 95.9924 4.74991 95.7618 4.66897 95.5339C4.5878 95.3054 4.58674 95.0049 4.7359 94.5991L4.2666 94.4266L3.7973 94.2541C3.59283 94.8103 3.5459 95.3596 3.72663 95.8686C3.90758 96.3781 4.29033 96.7728 4.79994 97.0707L5.05229 96.6391ZM4.2666 94.4266L4.7359 94.5991C5.07866 93.6667 5.52614 92.7218 6.07999 91.7644L5.64719 91.514L5.21439 91.2636C4.63472 92.2657 4.16181 93.2625 3.7973 94.2541L4.2666 94.4266ZM5.64719 91.514L6.07999 91.7644C6.39062 91.2274 6.57216 90.6935 6.57151 90.1734C6.57085 89.6397 6.37791 89.1625 6.01637 88.7595L5.64418 89.0934L5.27199 89.4273C5.47922 89.6583 5.57117 89.9016 5.57151 90.1747C5.57187 90.4615 5.47053 90.8209 5.21439 91.2636L5.64719 91.514ZM5.64418 89.0934L6.01637 88.7595C5.41834 88.0928 4.68299 87.4519 3.81558 86.8349L3.52577 87.2423L3.23595 87.6498C4.05556 88.2328 4.73248 88.8258 5.27199 89.4273L5.64418 89.0934ZM3.52577 87.2423L3.81558 86.8349C3.49383 86.606 3.44536 86.4195 3.46621 86.2578C3.49512 86.0335 3.6783 85.6859 4.1787 85.2109L3.83447 84.8483L3.49023 84.4856C2.94132 85.0067 2.5484 85.5561 2.47442 86.1299C2.39237 86.7662 2.71419 87.2787 3.23595 87.6498L3.52577 87.2423ZM3.83447 84.8483L4.1787 85.2109C5.24376 84.1999 5.88894 83.1753 5.75481 82.1733L5.25923 82.2396L4.76365 82.3059C4.82844 82.79 4.52378 83.5045 3.49023 84.4856L3.83447 84.8483ZM5.25923 82.2396L5.75481 82.1733C5.68152 81.6258 5.34118 81.1702 4.86135 80.7956C4.38208 80.4215 3.72099 80.093 2.90488 79.7989L2.73538 80.2693L2.56588 80.7397C3.33287 81.0161 3.88398 81.3013 4.24599 81.5839C4.60744 81.866 4.73747 82.1104 4.76365 82.3059L5.25923 82.2396ZM2.73538 80.2693L2.90488 79.7989C2.53338 79.6651 2.27863 79.5325 2.11742 79.4109C1.95533 79.2887 1.92849 79.2095 1.92398 79.1877C1.92148 79.1755 1.91104 79.118 2.00094 78.9872C2.09491 78.8504 2.27263 78.6747 2.56872 78.4654L2.28015 78.0571L1.99157 77.6488C1.64786 77.8917 1.36469 78.1473 1.1767 78.421C0.984626 78.7005 0.871136 79.0327 0.944508 79.3892C1.01588 79.736 1.24383 80.0047 1.51544 80.2094C1.78795 80.4149 2.14583 80.5884 2.56588 80.7397L2.73538 80.2693ZM2.28015 78.0571L2.56872 78.4654C3.23217 77.9965 3.72984 77.4868 3.90578 76.9184C3.99827 76.6197 3.99852 76.3138 3.89632 76.017C3.79654 75.7273 3.60941 75.4754 3.37241 75.2567L3.03329 75.6241L2.69417 75.9915C2.84593 76.1316 2.91899 76.2502 2.95082 76.3427C2.98025 76.4281 2.98354 76.516 2.9505 76.6227C2.8754 76.8654 2.60773 77.2133 1.99157 77.6488L2.28015 78.0571ZM3.03329 75.6241L3.37241 75.2567C2.60859 74.5517 1.90537 73.8236 1.26241 73.0725L0.882573 73.3977L0.502741 73.7228C1.17236 74.505 1.90296 75.2612 2.69417 75.9915L3.03329 75.6241ZM0.882573 73.3977L1.26241 73.0725C1.00812 72.7755 0.972286 72.5509 1.01893 72.3616C1.07415 72.1376 1.27507 71.8365 1.75583 71.4743L1.455 71.075L1.15417 70.6756C0.597009 71.0953 0.183571 71.5722 0.0479832 72.1224C-0.0961792 72.7073 0.100729 73.2532 0.502741 73.7228L0.882573 73.3977ZM1.455 71.075L1.75583 71.4743C2.32255 71.0474 2.73435 70.5172 2.71759 69.8752C2.70112 69.2441 2.27382 68.7147 1.69452 68.2752L1.39231 68.6735L1.09011 69.0719C1.59051 69.4515 1.71351 69.7319 1.71793 69.9013C1.72207 70.0597 1.62536 70.3207 1.15417 70.6756L1.455 71.075ZM1.39231 68.6735L1.69452 68.2752C1.18756 67.8906 1.06069 67.6137 1.05278 67.4571C1.04617 67.3262 1.11838 67.0944 1.56738 66.7721L1.27581 66.3659L0.984236 65.9597C0.431203 66.3567 0.0218186 66.8691 0.0540476 67.5075C0.0849731 68.12 0.517365 68.6373 1.09011 69.0719L1.39231 68.6735ZM1.27581 66.3659L1.56738 66.7721C2.61453 66.0204 3.30394 65.1804 3.4642 64.2319L2.97119 64.1486L2.47818 64.0653C2.38198 64.6346 1.94114 65.2728 0.984236 65.9597L1.27581 66.3659ZM2.97119 64.1486L3.4642 64.2319C3.63924 63.1959 2.97744 62.183 1.8815 61.2243L1.55229 61.6007L1.22308 61.977C2.27546 62.8976 2.55959 63.5834 2.47818 64.0653L2.97119 64.1486ZM1.55229 61.6007L1.8815 61.2243C1.37373 60.7801 1.12741 60.4158 1.046 60.1368C0.976256 59.8978 1.0145 59.6839 1.21382 59.4446L0.829672 59.1246L0.445526 58.8045C0.0524356 59.2763 -0.0850916 59.8306 0.0860412 60.417C0.2455 60.9634 0.656696 61.4815 1.22308 61.977L1.55229 61.6007ZM0.829672 59.1246L1.21382 59.4446C1.82792 58.7075 2.32785 57.9545 2.70975 57.185L2.26187 56.9627L1.81399 56.7404C1.47111 57.4313 1.01625 58.1195 0.445526 58.8045L0.829672 59.1246ZM2.26187 56.9627L2.70975 57.185C3.09888 56.4009 3.33364 55.5803 3.41141 54.7261L2.91347 54.6807L2.41553 54.6354C2.34927 55.3633 2.14963 56.0641 1.81399 56.7404L2.26187 56.9627ZM2.91347 54.6807L3.41141 54.7261C3.48263 53.9436 3.57442 53.162 3.68677 52.3812L3.19187 52.31L2.69697 52.2388C2.58215 53.0367 2.48833 53.8356 2.41553 54.6354L2.91347 54.6807ZM3.19187 52.31L3.68677 52.3812C3.78669 51.6869 4.07051 51.0468 4.55069 50.4553L4.16249 50.1401L3.77429 49.825C3.18748 50.5479 2.82423 51.3544 2.69697 52.2388L3.19187 52.31ZM4.16249 50.1401L4.55069 50.4553C4.98793 49.9166 5.7917 49.4525 7.05773 49.1181L6.93004 48.6347L6.80234 48.1512C5.44528 48.5097 4.40401 49.0492 3.77429 49.825L4.16249 50.1401ZM6.93004 48.6347L7.05773 49.1181C7.75832 48.933 8.37372 48.5872 8.55293 47.9398C8.72465 47.3194 8.42051 46.6653 7.95702 46.0576L7.55945 46.3608L7.16189 46.6641C7.59033 47.2258 7.62726 47.5354 7.58917 47.673C7.55858 47.7835 7.4133 47.9899 6.80234 48.1512L6.93004 48.6347ZM7.55945 46.3608L7.95702 46.0576C7.75245 45.7894 7.63605 45.5758 7.58154 45.4135C7.52822 45.2547 7.54346 45.1756 7.55683 45.1406C7.58354 45.0707 7.73868 44.8766 8.43332 44.7686L8.35644 44.2745L8.27957 43.7804C7.55094 43.8938 6.86162 44.1582 6.62267 44.7837C6.50321 45.0965 6.53032 45.4244 6.63357 45.7318C6.73562 46.0357 6.92049 46.3476 7.16189 46.6641L7.55945 46.3608ZM8.35644 44.2745L8.43332 44.7686C9.87988 44.5435 10.9895 44.0867 11.5047 43.2486L11.0788 42.9867L10.6528 42.7249C10.3848 43.1609 9.67954 43.5626 8.27957 43.7804L8.35644 44.2745ZM11.0788 42.9867L11.5047 43.2486C11.9096 42.5899 12.2617 41.9054 12.5608 41.1952L12.1 41.0011L11.6392 40.807C11.3599 41.4702 11.0312 42.1094 10.6528 42.7249L11.0788 42.9867ZM12.1 41.0011L12.5608 41.1952C12.917 40.3494 12.844 39.3321 12.4587 38.2035L11.9855 38.365L11.5123 38.5266C11.8581 39.5394 11.8614 40.2795 11.6392 40.807L12.1 41.0011ZM11.9855 38.365L12.4587 38.2035C12.0952 37.1389 11.7464 36.0497 11.4122 34.936L10.9333 35.0797L10.4544 35.2234C10.792 36.3487 11.1447 37.4498 11.5123 38.5266L11.9855 38.365ZM10.9333 35.0797L11.4122 34.936C11.262 34.4354 11.2817 34.1059 11.372 33.8934C11.4556 33.6966 11.6366 33.5143 12.0178 33.3834L11.8553 32.9105L11.6928 32.4376C11.1234 32.6333 10.6754 32.9758 10.4517 33.5022C10.2347 34.0127 10.2687 34.6045 10.4544 35.2234L10.9333 35.0797ZM11.8553 32.9105L12.0178 33.3834C12.9007 33.08 13.989 32.9243 15.2946 32.9312L15.2972 32.4312L15.2999 31.9312C13.9174 31.9239 12.7111 32.0878 11.6928 32.4376L11.8553 32.9105ZM15.2972 32.4312L15.2946 32.9312C15.6733 32.9332 16.032 32.8775 16.3272 32.7176C16.6435 32.5462 16.8557 32.2708 16.9358 31.9183C17.0104 31.5899 16.9626 31.2316 16.853 30.8736C16.7418 30.5105 16.5545 30.1069 16.3031 29.6671L15.869 29.9153L15.4349 30.1634C15.665 30.5658 15.8149 30.8987 15.8968 31.1663C15.9803 31.4391 15.9813 31.6059 15.9606 31.6967C15.9454 31.7636 15.9182 31.8018 15.8508 31.8383C15.7623 31.8863 15.5932 31.9328 15.2999 31.9312L15.2972 32.4312ZM15.869 29.9153L16.3031 29.6671C15.8291 28.8379 15.6498 28.2757 15.6525 27.9371C15.6537 27.7841 15.6917 27.7098 15.7253 27.6692C15.7608 27.6262 15.8365 27.567 16.007 27.5265L15.8914 27.0401L15.7758 26.5536C15.4575 26.6293 15.1655 26.7771 14.9548 27.0318C14.742 27.2889 14.6551 27.6031 14.6525 27.9293C14.6477 28.5491 14.9461 29.3083 15.4349 30.1634L15.869 29.9153ZM15.8914 27.0401L16.007 27.5265C17.1186 27.2623 17.9012 26.6388 18.2305 25.6308L17.7552 25.4755L17.2799 25.3203C17.0796 25.9334 16.6197 26.353 15.7758 26.5536L15.8914 27.0401ZM17.7552 25.4755L18.2305 25.6308C18.3313 25.3221 18.4985 25.0993 18.731 24.9389C18.9702 24.7739 19.3078 24.6553 19.7742 24.6124L19.7283 24.1145L19.6825 23.6166C19.0982 23.6704 18.5818 23.827 18.1632 24.1157C17.7379 24.4091 17.4439 24.8184 17.2799 25.3203L17.7552 25.4755ZM19.7283 24.1145L19.7742 24.6124C20.4008 24.5547 20.9369 24.3123 21.2689 23.8134C21.5876 23.3345 21.6537 22.7128 21.57 22.0316L21.0737 22.0925L20.5775 22.1535C20.6475 22.7234 20.5662 23.0643 20.4364 23.2594C20.3199 23.4345 20.1065 23.5775 19.6825 23.6166L19.7283 24.1145ZM21.0737 22.0925L21.57 22.0316C21.5016 21.475 21.6502 21.3601 21.7193 21.3245C21.7878 21.2892 21.9186 21.2551 22.1499 21.2708C22.379 21.2864 22.6745 21.3486 23.0437 21.4708L23.2008 20.9961L23.3579 20.5214C22.9412 20.3835 22.5588 20.2963 22.2176 20.2731C21.8788 20.2501 21.5472 20.2881 21.2611 20.4356C20.6212 20.7655 20.4922 21.4589 20.5775 22.1535L21.0737 22.0925ZM23.2008 20.9961L23.0437 21.4708C24.6306 21.996 25.9391 22.179 26.8796 21.8756L26.7261 21.3998L26.5726 20.9239C25.9562 21.1227 24.9145 21.0366 23.3579 20.5214L23.2008 20.9961ZM26.7261 21.3998L26.8796 21.8756C27.7179 21.6052 28.447 21.1987 29.0578 20.6514L28.7242 20.279L28.3905 19.9066C27.894 20.3515 27.2911 20.6921 26.5726 20.9239L26.7261 21.3998ZM28.7242 20.279L29.0578 20.6514C29.7167 20.0611 30.1274 19.2096 30.3324 18.157L29.8416 18.0615L29.3508 17.9659C29.1732 18.878 28.8391 19.5048 28.3905 19.9066L28.7242 20.279ZM29.8416 18.0615L30.3324 18.157C30.5341 17.1209 30.5902 15.8637 30.5111 14.3953L30.0118 14.4222L29.5125 14.4491C29.589 15.8684 29.5316 17.0374 29.3508 17.9659L29.8416 18.0615ZM30.0118 14.4222L30.5111 14.3953C30.4738 13.7029 30.61 13.4172 30.7197 13.3171C30.8014 13.2426 31.0157 13.1486 31.5738 13.331L31.7291 12.8557L31.8845 12.3805C31.2199 12.1633 30.5366 12.1305 30.0458 12.5782C29.5831 13.0003 29.472 13.6975 29.5125 14.4491L30.0118 14.4222ZM31.7291 12.8557L31.5738 13.331C32.7945 13.7299 33.9727 14.1237 35.1085 14.5123L35.2704 14.0393L35.4322 13.5662C34.2918 13.176 33.1092 12.7807 31.8845 12.3805L31.7291 12.8557ZM35.2704 14.0393L35.1085 14.5123C35.7265 14.7238 36.3122 14.7986 36.8299 14.6601C37.3708 14.5154 37.7697 14.1563 38.0247 13.6455L37.5773 13.4222L37.13 13.1988C36.9852 13.4889 36.7996 13.633 36.5715 13.694C36.3203 13.7612 35.9523 13.7441 35.4322 13.5662L35.2704 14.0393ZM37.5773 13.4222L38.0247 13.6455C38.4075 12.8788 38.8518 12.2075 39.3561 11.6285L38.9791 11.3001L38.602 10.9717C38.037 11.6205 37.5469 12.3638 37.13 13.1988L37.5773 13.4222ZM38.9791 11.3001L39.3561 11.6285C39.8786 11.0287 40.4286 10.4643 41.0062 9.93545L40.6685 9.5667L40.3308 9.19795C39.7251 9.75261 39.1489 10.3439 38.602 10.9717L38.9791 11.3001ZM40.6685 9.5667L41.0062 9.93545C41.6024 9.38945 42.1982 8.82332 42.7935 8.23708L42.4427 7.88082L42.0919 7.52456C41.5049 8.1026 40.9179 8.66039 40.3308 9.19795L40.6685 9.5667ZM42.4427 7.88082L42.7935 8.23708C43.3823 7.65727 43.9821 7.07811 44.593 6.4996L44.2493 6.13655L43.9055 5.7735C43.2899 6.35641 42.6854 6.9401 42.0919 7.52456L42.4427 7.88082ZM44.2493 6.13655L44.593 6.4996C45.0535 6.06357 45.6362 5.92486 46.4402 6.16242L46.5818 5.68291L46.7235 5.2034C45.6439 4.8844 44.6715 5.04812 43.9055 5.7735L44.2493 6.13655ZM46.5818 5.68291L46.4402 6.16242C46.9836 6.323 47.5124 6.34525 48.0061 6.18989C48.5015 6.03402 48.9151 5.71398 49.2516 5.27036L48.8532 4.96822L48.4548 4.66607C48.2188 4.9772 47.9677 5.15364 47.706 5.236C47.4426 5.31887 47.1218 5.3211 46.7235 5.2034L46.5818 5.68291ZM48.8532 4.96822L49.2516 5.27036C49.7907 4.55957 50.3824 4.022 51.0236 3.64525L50.7703 3.21415L50.517 2.78306C49.7469 3.23558 49.0606 3.86739 48.4548 4.66607L48.8532 4.96822ZM50.7703 3.21415L51.0236 3.64525C51.2031 3.5398 51.4313 3.51248 51.7801 3.67122C52.148 3.83868 52.6048 4.1977 53.1497 4.80112L53.5208 4.46603L53.8919 4.13095C53.3088 3.48515 52.7432 3.01091 52.1943 2.76107C51.6263 2.50252 51.0432 2.47387 50.517 2.78306L50.7703 3.21415ZM53.5208 4.46603L53.1497 4.80112C53.4495 5.13316 53.7466 5.40087 54.0417 5.58527C54.3358 5.76906 54.659 5.88912 54.9969 5.87242C55.7241 5.83649 56.1555 5.21964 56.4124 4.51831L55.9429 4.34635L55.4734 4.17438C55.2435 4.80207 55.0278 4.86968 54.9476 4.87364C54.8818 4.87689 54.7613 4.85576 54.5716 4.73722C54.3829 4.61928 54.156 4.42352 53.8919 4.13095L53.5208 4.46603ZM55.9429 4.34635L56.4124 4.51831C56.644 3.88602 56.8834 3.61433 57.0601 3.52266C57.1851 3.45779 57.3841 3.43189 57.7518 3.67858L58.0304 3.26335L58.3089 2.84812C57.7718 2.48778 57.1704 2.33888 56.5996 2.63501C56.0804 2.90434 55.7286 3.47765 55.4734 4.17438L55.9429 4.34635ZM58.0304 3.26335L57.7518 3.67858C58.6861 4.30532 59.5851 4.75712 60.4478 5.02097L60.594 4.54284L60.7402 4.0647C59.9945 3.8366 59.1844 3.43541 58.3089 2.84812L58.0304 3.26335ZM60.594 4.54284L60.4478 5.02097C61.0502 5.20523 61.6077 5.02692 62.0642 4.59283C62.494 4.18413 62.8481 3.54204 63.1523 2.73108L62.6842 2.55547L62.216 2.37986C61.931 3.13979 61.642 3.61436 61.3751 3.86812C61.135 4.09648 60.942 4.12642 60.7402 4.0647L60.594 4.54284ZM62.6842 2.55547L63.1523 2.73108C63.4382 1.9688 63.7232 1.54767 63.9659 1.36005C64.0767 1.27432 64.167 1.24628 64.2429 1.24234C64.3214 1.23826 64.4289 1.25783 64.5745 1.33986L64.8199 0.904206L65.0653 0.468552C64.7936 0.315556 64.4992 0.227668 64.191 0.243683C63.8803 0.259834 63.5993 0.379441 63.3542 0.568928C62.885 0.931722 62.5193 1.57125 62.216 2.37986L62.6842 2.55547ZM64.8199 0.904206L64.5745 1.33986C65.052 1.6088 65.5446 1.75662 66.0461 1.75602C66.5495 1.75541 67.0301 1.60521 67.4811 1.32677L67.2184 0.901323L66.9558 0.475876C66.6423 0.669405 66.3409 0.755663 66.0449 0.756019C65.7469 0.756377 65.4223 0.66966 65.0653 0.468552L64.8199 0.904206ZM67.2184 0.901323L67.4811 1.32677C67.7579 1.1559 68.001 1.12627 68.2427 1.19471C68.5058 1.26923 68.8243 1.47707 69.1908 1.89579L69.567 1.56646L69.9433 1.23713C69.5085 0.74046 69.0349 0.379753 68.5152 0.232553C67.974 0.0792799 67.4434 0.174781 66.9558 0.475876L67.2184 0.901323ZM69.567 1.56646L69.1908 1.89579C69.6324 2.4002 70.1375 2.75256 70.7118 2.81301C71.302 2.87513 71.8357 2.61675 72.2958 2.18016L71.9517 1.81744L71.6075 1.45472C71.2792 1.76621 71.0212 1.84004 70.8165 1.8185C70.596 1.79529 70.303 1.64812 69.9433 1.23713L69.567 1.56646ZM71.9517 1.81744L72.2958 2.18016C73.0348 1.47906 73.7368 1.11475 74.4015 1.0203L74.3311 0.525269L74.2608 0.0302422C73.3298 0.162538 72.4455 0.65968 71.6075 1.45472L71.9517 1.81744ZM74.3311 0.525269L74.4015 1.0203C75.0226 0.93204 75.6483 1.12928 76.3017 1.70743L76.633 1.33296L76.9644 0.958483C76.1443 0.232969 75.2354 -0.10825 74.2608 0.0302422L74.3311 0.525269ZM76.633 1.33296L76.3017 1.70743C77.0782 2.39445 77.8822 2.88077 78.715 3.14441L78.8659 2.66773L79.0168 2.19104C78.3459 1.97865 77.6613 1.57513 76.9644 0.958483L76.633 1.33296ZM78.8659 2.66773L78.715 3.14441C79.6676 3.446 80.6479 3.17282 81.6069 2.49036L81.317 2.08299L81.0271 1.67561C80.2216 2.24883 79.5678 2.36548 79.0168 2.19104L78.8659 2.66773ZM81.317 2.08299L81.6069 2.49036C82.0021 2.20908 82.346 2.07098 82.6421 2.03484C82.9291 1.9998 83.2007 2.05656 83.4726 2.21833L83.7283 1.78865L83.984 1.35897C83.5305 1.08913 83.0376 0.979139 82.5209 1.04221C82.0132 1.10418 81.514 1.32906 81.0271 1.67561L81.317 2.08299ZM83.7283 1.78865L83.4726 2.21833C84.1826 2.64082 84.8743 3.10376 85.5478 3.60725L85.8472 3.20678L86.1466 2.80632C85.4455 2.28219 84.7246 1.7997 83.984 1.35897L83.7283 1.78865ZM85.8472 3.20678L85.5478 3.60725C85.9762 3.9275 86.4607 4.09012 86.9871 4.07861C87.5042 4.0673 88.0283 3.88901 88.5517 3.58577L88.3011 3.15313L88.0504 2.72049C87.6252 2.96683 87.2661 3.07227 86.9652 3.07885C86.6736 3.08522 86.4055 2.99988 86.1466 2.80632L85.8472 3.20678ZM88.3011 3.15313L88.5517 3.58577C89.4156 3.08527 90.0823 3.03824 90.6206 3.28044L90.8258 2.82447L91.0309 2.3685C90.1003 1.94975 89.0838 2.12182 88.0504 2.72049L88.3011 3.15313ZM90.8258 2.82447L90.6206 3.28044C91.1558 3.52125 91.6603 4.16295 92.0404 5.41842L92.5189 5.27352L92.9975 5.12863C92.589 3.77965 91.9647 2.78865 91.0309 2.3685L90.8258 2.82447ZM92.5189 5.27352L92.0404 5.41842C92.2496 6.10933 92.5397 6.67676 92.9478 7.05313C93.3787 7.45041 93.9081 7.60316 94.4881 7.50839L94.4074 7.01493L94.3268 6.52147C94.0421 6.56799 93.8244 6.50115 93.6257 6.31797C93.4044 6.11386 93.1826 5.73995 92.9975 5.12863L92.5189 5.27352ZM94.4074 7.01493L94.4881 7.50839C94.8135 7.45522 95.0574 7.51209 95.2576 7.64644C95.4692 7.78847 95.6817 8.05109 95.8666 8.49607L96.3283 8.3042L96.7901 8.11233C96.5591 7.55651 96.2435 7.10385 95.8148 6.81612C95.3747 6.52071 94.8661 6.43335 94.3268 6.52147L94.4074 7.01493ZM96.3283 8.3042L95.8666 8.49607C96.1166 9.09762 96.5397 9.54593 97.177 9.62891C97.7606 9.70491 98.3862 9.45002 99.0109 9.03336L98.7335 8.61739L98.456 8.20142C97.8932 8.57676 97.5242 8.66569 97.3061 8.63729C97.1417 8.61588 96.956 8.51158 96.7901 8.11233L96.3283 8.3042ZM98.7335 8.61739L99.0109 9.03336C99.5774 8.65554 99.9315 8.57862 100.125 8.60946C100.259 8.63074 100.433 8.72536 100.579 9.14968L101.052 8.9866L101.525 8.82352C101.313 8.20969 100.922 7.72369 100.282 7.6219C99.7031 7.52966 99.0771 7.78722 98.456 8.20142L98.7335 8.61739ZM101.052 8.9866L100.579 9.14968C100.784 9.74268 101.116 10.2219 101.624 10.4766C102.132 10.7312 102.714 10.7108 103.313 10.5207L103.161 10.0442L103.01 9.56769C102.56 9.71064 102.267 9.68056 102.072 9.58266C101.877 9.48484 101.678 9.26869 101.525 8.82352L101.052 8.9866ZM103.161 10.0442L103.313 10.5207C104.263 10.2186 104.883 10.3412 105.306 10.7127L105.636 10.3369L105.966 9.96115C105.185 9.27615 104.155 9.20363 103.01 9.56769L103.161 10.0442ZM105.636 10.3369L105.306 10.7127C105.813 11.158 106.211 11.8355 106.468 12.7926L106.951 12.6626L107.434 12.5327C107.141 11.4454 106.662 10.5724 105.966 9.96115L105.636 10.3369ZM106.951 12.6626L106.468 12.7926C106.636 13.4144 106.994 13.902 107.597 14.0872C108.156 14.2587 108.809 14.1306 109.491 13.8434L109.297 13.3826L109.103 12.9217C108.497 13.1768 108.114 13.1997 107.891 13.1312C107.712 13.0765 107.542 12.933 107.434 12.5327L106.951 12.6626ZM109.297 13.3826L109.491 13.8434C110.103 13.5858 110.421 13.6084 110.563 13.6778C110.671 13.73 110.831 13.8903 110.873 14.4306L111.371 14.392L111.87 14.3535C111.818 13.6786 111.585 13.063 111.001 12.7787C110.452 12.5116 109.78 12.6371 109.103 12.9217L109.297 13.3826ZM111.371 14.392L110.873 14.4306C110.971 15.706 111.353 16.7179 112.143 17.2957L112.438 16.8921L112.733 16.4884C112.289 16.1633 111.959 15.5085 111.87 14.3535L111.371 14.392ZM112.438 16.8921L112.143 17.2957C112.725 17.721 113.247 18.2196 113.709 18.7927L114.098 18.4788L114.487 18.165C113.972 17.5253 113.387 16.9661 112.733 16.4884L112.438 16.8921ZM114.098 18.4788L113.709 18.7927C114.298 19.5233 115.144 19.9241 116.181 20.0335L116.233 19.5362L116.286 19.039C115.454 18.9513 114.876 18.6471 114.487 18.165L114.098 18.4788ZM116.233 19.5362L116.181 20.0335C116.566 20.0741 116.828 20.1954 117.009 20.3643C117.19 20.5337 117.333 20.7915 117.406 21.1829L117.898 21.0912L118.389 20.9995C118.287 20.4528 118.065 19.9824 117.692 19.6336C117.318 19.284 116.835 19.0969 116.286 19.039L116.233 19.5362ZM117.898 21.0912L117.406 21.1829C117.595 22.1965 117.993 23.0327 118.63 23.6497L118.978 23.2907L119.326 22.9316C118.872 22.4921 118.55 21.8621 118.389 20.9995L117.898 21.0912ZM118.978 23.2907L118.63 23.6497C119.235 24.2356 119.982 24.6765 120.861 24.9798L121.024 24.5071L121.187 24.0345C120.428 23.7723 119.812 23.4022 119.326 22.9316L118.978 23.2907ZM121.024 24.5071L120.861 24.9798C121.709 25.2727 122.642 25.5053 123.659 25.6794L123.744 25.1866L123.828 24.6937C122.856 24.5274 121.976 24.3071 121.187 24.0345L121.024 24.5071ZM123.744 25.1866L123.659 25.6794C123.849 25.7119 123.967 25.7681 124.039 25.825C124.107 25.878 124.157 25.9481 124.189 26.0545C124.26 26.2943 124.236 26.7215 123.987 27.4043L124.457 27.5758L124.926 27.7473C125.196 27.0076 125.313 26.3252 125.147 25.7686C125.06 25.4768 124.897 25.2269 124.656 25.0382C124.421 24.8535 124.136 24.7463 123.828 24.6937L123.744 25.1866ZM124.457 27.5758L123.987 27.4043C123.461 28.844 123.301 30.0745 123.744 30.9545L124.191 30.7297L124.637 30.5049C124.396 30.025 124.413 29.1529 124.926 27.7473L124.457 27.5758ZM124.191 30.7297L123.744 30.9545C124.23 31.9195 125.385 32.2265 126.8 32.1779L126.783 31.6782L126.766 31.1785C125.409 31.2251 124.836 30.8997 124.637 30.5049L124.191 30.7297ZM126.783 31.6782L126.8 32.1779C127.459 32.1553 127.746 32.2868 127.854 32.3997C127.933 32.4817 128.026 32.6782 127.877 33.1839L128.357 33.3248L128.837 33.4657C129.025 32.8261 129.023 32.1755 128.577 31.7087C128.16 31.2727 127.492 31.1536 126.766 31.1785L126.783 31.6782ZM128.357 33.3248L127.877 33.1839C127.53 34.3667 127.391 35.4206 127.49 36.3312L127.987 36.277L128.484 36.2228C128.404 35.4877 128.511 34.5734 128.837 33.4657L128.357 33.3248ZM127.987 36.277L127.49 36.3312C127.549 36.8699 127.791 37.3248 128.208 37.667C128.612 37.998 129.153 38.2019 129.784 38.3139L129.871 37.8216L129.959 37.3292C129.424 37.2344 129.067 37.0774 128.842 36.8936C128.632 36.7209 128.515 36.5069 128.484 36.2228L127.987 36.277ZM129.871 37.8216L129.784 38.3139C130.947 38.52 132.138 38.7462 133.359 38.9924L133.458 38.5022L133.556 38.0121C132.329 37.7645 131.129 37.5368 129.959 37.3292L129.871 37.8216ZM133.458 38.5022L133.359 38.9924C133.924 39.1063 134.299 39.2808 134.533 39.4811C134.752 39.6693 134.868 39.8978 134.89 40.1962L135.388 40.1596L135.887 40.123C135.846 39.5634 135.609 39.0866 135.184 38.7224C134.774 38.3702 134.216 38.145 133.556 38.0121L133.458 38.5022ZM135.388 40.1596L134.89 40.1962C134.948 40.9908 134.86 41.8494 134.616 42.7755L135.1 42.9027L135.583 43.0298C135.85 42.0144 135.955 41.0443 135.887 40.123L135.388 40.1596ZM135.1 42.9027L134.616 42.7755C134.345 43.8073 134.309 44.7597 134.546 45.6144L135.028 45.4808L135.51 45.3471C135.332 44.7059 135.344 43.9396 135.583 43.0298L135.1 42.9027ZM135.028 45.4808L134.546 45.6144C134.777 46.4459 135.21 47.1979 135.833 47.8685L136.199 47.5282L136.565 47.1879C136.042 46.6245 135.694 46.0116 135.51 45.3471L135.028 45.4808ZM136.199 47.5282L135.833 47.8685C136.402 48.482 136.969 49.1091 137.532 49.7497L137.907 49.4197L138.283 49.0896C137.714 48.4422 137.141 47.8083 136.565 47.1879L136.199 47.5282ZM137.907 49.4197L137.532 49.7497C137.681 49.9198 137.73 50.1097 137.625 50.4078C137.508 50.7442 137.198 51.1877 136.623 51.7398L136.969 52.1005L137.316 52.4613C137.932 51.8701 138.374 51.2952 138.569 50.738C138.778 50.1424 138.699 49.5636 138.283 49.0896L137.907 49.4197ZM136.969 52.1005L136.623 51.7398C136.008 52.3306 135.56 52.8985 135.334 53.4424C135.1 54.0076 135.097 54.5821 135.434 55.0833L135.849 54.8039L136.264 54.5244C136.157 54.3666 136.119 54.1611 136.258 53.8253C136.406 53.468 136.74 53.0137 137.316 52.4613L136.969 52.1005ZM135.849 54.8039L135.434 55.0833C135.896 55.7686 136.446 56.4425 137.08 57.1054L137.442 56.7595L137.803 56.4137C137.202 55.787 136.69 55.1571 136.264 54.5244L135.849 54.8039ZM137.442 56.7595L137.08 57.1054C137.673 57.7242 138.165 58.3705 138.558 59.0439L138.99 58.7918L139.421 58.5397C138.985 57.793 138.445 57.0844 137.803 56.4137L137.442 56.7595ZM138.99 58.7918L138.558 59.0439C138.897 59.625 138.962 60.2408 138.74 60.9305L139.216 61.084L139.692 61.2374C139.997 60.291 139.911 59.3787 139.421 58.5397L138.99 58.7918ZM139.216 61.084L138.74 60.9305C138.498 61.6818 138.074 62.4553 137.453 63.2506L137.847 63.5582L138.242 63.8657C138.918 62.9982 139.406 62.1223 139.692 61.2374L139.216 61.084ZM137.847 63.5582L137.453 63.2506C136.74 64.1644 136.462 65.1258 136.824 66.0703L137.291 65.8913L137.757 65.7124C137.564 65.2087 137.657 64.6147 138.242 63.8657L137.847 63.5582ZM137.291 65.8913L136.824 66.0703C137.078 66.7328 137.188 67.4011 137.159 68.0789L137.659 68.1002L138.159 68.1215C138.193 67.3023 138.059 66.498 137.757 65.7124L137.291 65.8913ZM137.659 68.1002L137.159 68.0789C137.12 68.9932 137.495 69.8229 138.201 70.5549L138.561 70.2077L138.921 69.8605C138.361 69.2796 138.134 68.7043 138.159 68.1215L137.659 68.1002ZM138.561 70.2077L138.201 70.5549C138.525 70.8899 138.807 71.1553 139.044 71.3404C139.162 71.4328 139.281 71.5139 139.396 71.574C139.502 71.6294 139.652 71.6924 139.823 71.6924V71.1924V70.6924C139.89 70.6924 139.91 70.7143 139.859 70.6876C139.817 70.6657 139.751 70.6238 139.659 70.552C139.476 70.4089 139.231 70.1819 138.921 69.8605L138.561 70.2077ZM139.823 71.1924V71.6924C139.787 71.6924 139.652 71.6862 139.531 71.5679C139.399 71.439 139.392 71.2855 139.397 71.223C139.402 71.1649 139.418 71.1345 139.412 71.1466C139.41 71.153 139.4 71.1725 139.378 71.2073C139.284 71.3555 139.08 71.61 138.739 71.985L139.109 72.3212L139.479 72.6575C139.822 72.2799 140.079 71.9699 140.223 71.7419C140.26 71.6827 140.296 71.6198 140.325 71.5557C140.351 71.4972 140.385 71.408 140.394 71.3028C140.402 71.1933 140.385 71.0046 140.229 70.8522C140.084 70.7104 139.91 70.6924 139.823 70.6924V71.1924Z" fill="#C9AA7C"/>
</svg>
