<svg width="563" height="561" viewBox="0 0 563 561" fill="none" xmlns="http://www.w3.org/2000/svg">
<path d="M228.619 331.74L257.666 560.419C196.399 553.675 142.326 519.564 115.668 467.392L212.707 392.68L207.387 353.449L168.156 348.13L93.8701 444.614C36.8925 414.17 1.30273 351.529 0.0341797 282.588L228.619 331.74ZM562.978 282.57C561.837 351.368 524.615 413.189 466.727 442.802L393.838 348.131L354.607 353.451L349.287 392.682L446.229 467.318C419.035 518.607 365.802 552.662 305.304 560.11L334.312 331.74L562.978 282.57ZM184.269 452.446C172.991 452.446 163.848 461.588 163.848 472.866C163.848 484.144 172.991 493.287 184.269 493.287C195.546 493.287 204.689 484.144 204.689 472.866C204.689 461.588 195.546 452.446 184.269 452.446ZM378.8 452.446C367.522 452.446 358.379 461.588 358.379 472.866C358.379 484.144 367.522 493.287 378.8 493.287C390.078 493.287 399.221 484.144 399.221 472.866C399.22 461.588 390.078 452.446 378.8 452.446ZM89.1543 357.335C77.8763 357.335 68.7335 366.478 68.7334 377.756C68.7334 389.034 77.8763 398.177 89.1543 398.177C100.432 398.177 109.574 389.034 109.574 377.756C109.574 366.478 100.432 357.335 89.1543 357.335ZM473.921 357.335C462.643 357.335 453.5 366.478 453.5 377.756C453.5 389.034 462.643 398.177 473.921 398.177C485.199 398.177 494.342 389.034 494.342 377.756C494.342 366.478 485.199 357.335 473.921 357.335ZM298.691 262.954L345.155 280.147L298.691 297.341L281.498 360.779L264.306 297.341L217.842 280.147L264.306 262.954L281.498 199.516L298.691 262.954ZM305.248 0.192383C365.032 7.78205 417.176 42.7667 443.806 94.2217L349.285 166.996L354.605 206.227L393.836 211.546L466.801 116.775C525.395 146.044 562.599 208.756 563 278.182L334.312 229.007L305.248 0.192383ZM228.619 229.007L0 278.167L0.00195312 277.729C0.352973 208.136 35.7897 144.542 93.5605 114.66L168.158 211.55L207.389 206.23L212.709 167L118.378 94.373C144.623 42.258 197.373 7.16295 257.707 0L228.619 229.007ZM89.1543 162.803C77.8763 162.803 68.7335 171.946 68.7334 183.224C68.7334 194.502 77.8763 203.645 89.1543 203.645C100.432 203.644 109.574 194.502 109.574 183.224C109.574 171.946 100.432 162.803 89.1543 162.803ZM473.921 162.803C462.643 162.803 453.5 171.946 453.5 183.224C453.5 194.502 462.643 203.645 473.921 203.645C485.199 203.645 494.342 194.502 494.342 183.224C494.342 171.946 485.199 162.803 473.921 162.803ZM184.269 67.6807C172.991 67.6807 163.848 76.8228 163.848 88.1006C163.848 99.3786 172.991 108.521 184.269 108.521C195.546 108.521 204.689 99.3785 204.689 88.1006C204.689 76.8229 195.546 67.6808 184.269 67.6807ZM378.8 67.6807C367.522 67.6807 358.379 76.8228 358.379 88.1006C358.379 99.3786 367.522 108.521 378.8 108.521C390.078 108.521 399.221 99.3785 399.221 88.1006C399.22 76.8229 390.078 67.6808 378.8 67.6807Z" fill="#E9E1D5"/>
</svg>
