<svg width="1443" height="966" viewBox="0 0 1443 966" fill="none" xmlns="http://www.w3.org/2000/svg">
<path d="M98.0928 339.566L-1.53873e-05 352.025C2.89351 325.744 17.5268 302.549 39.9082 291.115L71.9551 332.74L88.7832 330.458L91.0654 313.63L49.6777 281.765C62.7376 257.325 89.6057 242.058 119.178 241.515L98.0928 339.566ZM98.0927 581.064L-2.59435e-05 593.523C2.8929 567.242 17.5247 544.046 39.9053 532.611L71.9551 574.24L88.7832 571.958L91.0654 555.13L49.6777 523.264C62.7375 498.824 89.6054 483.556 119.178 483.013L98.0927 581.064ZM98.0908 822.566L-3.64999e-05 835.025C2.89279 808.745 17.5244 785.549 39.9043 774.114L71.9531 815.742L88.7812 813.46L91.0634 796.632L49.6767 764.767C62.7359 740.326 89.6037 725.059 119.176 724.515L98.0908 822.566ZM98.0928 98.0624L0.000971732 110.521C2.89488 84.2418 17.5258 61.0475 39.9053 49.6132L71.9551 91.2412L88.7832 88.9589L91.0654 72.1308L49.6777 40.2646C62.7375 15.8252 89.6051 0.55847 119.177 0.0145906L98.0928 98.0624ZM119.186 241.487C89.6734 240.999 63.1551 225.032 50.4531 200.199L91.0635 168.933L88.7812 152.104L71.9531 149.822L39.9365 191.407C17.935 179.742 3.32612 156.907 0.13183 130.955L98.0928 143.399L119.186 241.487ZM119.186 482.987C89.6744 482.499 63.1567 466.533 50.4541 441.702L91.0635 410.436L88.7812 393.608L71.9531 391.326L39.9375 432.91C17.9359 421.246 3.32763 398.411 0.132796 372.459L98.0928 384.903L119.186 482.987ZM119.186 724.485C89.6744 723.997 63.1567 708.031 50.4541 683.2L91.0634 651.935L88.7812 635.106L71.9531 632.824L39.9384 674.406C17.9372 662.742 3.32842 639.909 0.132786 613.958L98.0927 626.401L119.186 724.485ZM119.184 965.987C89.6732 965.498 63.1564 949.533 50.4541 924.702L91.0615 893.438L88.7793 876.61L71.9511 874.328L39.9384 915.908C17.9372 904.244 3.3284 881.411 0.132775 855.46L98.0908 867.903L119.184 965.987ZM46.3144 803.543C46.3142 798.705 42.3922 794.784 37.5547 794.784C32.7172 794.784 28.7961 798.706 28.7959 803.543C28.7959 808.381 32.7171 812.303 37.5547 812.303C42.3923 812.303 46.3144 808.381 46.3144 803.543ZM46.3144 886.989C46.3144 882.152 42.3923 878.229 37.5546 878.229C32.7171 878.23 28.7959 882.152 28.7959 886.989C28.796 891.827 32.7172 895.748 37.5546 895.748C42.3922 895.748 46.3142 891.827 46.3144 886.989ZM46.3164 79.0419C46.3164 74.2043 42.3943 70.2822 37.5566 70.2822C32.7191 70.2823 28.7979 74.2043 28.7978 79.0419C28.798 83.8794 32.7192 87.8006 37.5566 87.8007C42.3942 87.8007 46.3162 83.8795 46.3164 79.0419ZM46.3164 162.487C46.3164 157.65 42.3943 153.727 37.5566 153.727C32.7191 153.728 28.7979 157.65 28.7978 162.487C28.798 167.325 32.7192 171.246 37.5566 171.246C42.3942 171.246 46.3162 167.325 46.3164 162.487ZM46.3164 320.544C46.3164 315.706 42.3942 311.784 37.5566 311.784C32.7191 311.784 28.7979 315.706 28.7978 320.544C28.798 325.381 32.7192 329.303 37.5566 329.303C42.3941 329.303 46.3162 325.381 46.3164 320.544ZM46.3164 403.988C46.3161 399.151 42.3941 395.229 37.5566 395.229C32.7193 395.23 28.7981 399.151 28.7978 403.988C28.7978 408.826 32.7191 412.748 37.5566 412.748C42.3943 412.748 46.3164 408.826 46.3164 403.988ZM46.3164 562.042C46.3163 557.204 42.3942 553.282 37.5566 553.282C32.7191 553.282 28.7979 557.204 28.7978 562.042C28.798 566.879 32.7191 570.801 37.5566 570.801C42.3941 570.801 46.3162 566.879 46.3164 562.042ZM46.3164 645.485C46.3163 640.648 42.3942 636.726 37.5566 636.726C32.7192 636.726 28.7979 640.648 28.7978 645.485C28.798 650.323 32.7192 654.244 37.5566 654.244C42.3941 654.244 46.3162 650.323 46.3164 645.485ZM87.1132 762.741C87.113 757.904 83.191 753.982 78.3535 753.982C73.5161 753.983 69.5949 757.904 69.5947 762.741C69.5947 767.579 73.516 771.501 78.3535 771.501C83.1912 771.501 87.1132 767.579 87.1132 762.741ZM87.1132 927.788C87.113 922.951 83.191 919.029 78.3535 919.029C73.5161 919.029 69.5949 922.951 69.5947 927.788C69.5947 932.626 73.516 936.548 78.3535 936.548C83.1912 936.548 87.1132 932.626 87.1132 927.788ZM87.1152 38.2392C87.115 33.4017 83.193 29.4804 78.3555 29.4804C73.5181 29.4806 69.5969 33.4018 69.5967 38.2392C69.5967 43.0768 73.5179 46.9988 78.3555 46.999C83.1932 46.999 87.1152 43.0769 87.1152 38.2392ZM87.1152 203.284C87.1151 198.447 83.1931 194.525 78.3555 194.525C73.518 194.526 69.5968 198.447 69.5967 203.284C69.5967 208.122 73.5179 212.044 78.3555 212.044C83.1931 212.044 87.1152 208.122 87.1152 203.284ZM87.1152 279.743C87.1151 274.906 83.193 270.984 78.3555 270.984C73.518 270.985 69.5968 274.906 69.5967 279.743C69.5967 284.581 73.5179 288.503 78.3555 288.503C83.1931 288.503 87.1152 284.581 87.1152 279.743ZM87.1152 444.788C87.115 439.951 83.193 436.029 78.3554 436.029C73.518 436.029 69.5968 439.951 69.5967 444.788C69.5967 449.626 73.5179 453.548 78.3554 453.548C83.1931 453.548 87.1152 449.626 87.1152 444.788ZM87.1152 521.241C87.1149 516.404 83.1929 512.482 78.3554 512.482C73.5181 512.483 69.597 516.404 69.5967 521.241C69.5967 526.079 73.5179 530.001 78.3554 530.001C83.1931 530.001 87.1152 526.079 87.1152 521.241ZM87.1152 686.286C87.1149 681.449 83.1929 677.527 78.3554 677.527C73.5181 677.527 69.597 681.449 69.5966 686.286C69.5967 691.124 73.5179 695.046 78.3554 695.046C83.1931 695.046 87.1152 691.124 87.1152 686.286ZM127.597 852.627L120.222 872.557L112.847 852.627L85.6347 845.252L112.847 837.877L120.222 817.946L127.597 837.877L154.809 845.252L127.597 852.627ZM127.599 128.125L120.224 148.055L112.849 128.125L85.6367 120.75L112.849 113.375L120.224 93.4443L127.599 113.375L154.811 120.75L127.599 128.125ZM127.599 369.627L120.224 389.557L112.849 369.627L85.6367 362.252L112.849 354.877L120.224 334.946L127.599 354.877L154.811 362.252L127.599 369.627ZM127.599 611.125L120.224 631.055L112.849 611.125L85.6367 603.75L112.849 596.375L120.224 576.444L127.599 596.375L154.811 603.75L127.599 611.125ZM240.309 855.435C237.053 881.08 222.044 903.447 199.972 914.869L168.758 874.328L151.93 876.61L149.647 893.438L190.299 924.735C177.744 949.868 150.845 965.824 121.066 965.996L142.159 867.903L240.309 855.435ZM240.31 130.932C237.055 156.577 222.046 178.945 199.974 190.368L168.76 149.827L151.932 152.109L149.649 168.937L190.3 200.234C177.745 225.367 150.846 241.324 121.067 241.496L142.16 143.399L240.31 130.932ZM240.309 613.934C237.053 639.578 222.045 661.943 199.974 673.366L168.76 632.826L151.932 635.108L149.649 651.936L190.3 683.232C177.745 708.365 150.846 724.321 121.067 724.494L142.16 626.401L240.309 613.934ZM240.309 372.435C237.053 398.08 222.047 420.446 199.976 431.869L168.76 391.326L151.932 393.608L149.649 410.436L190.3 441.733C177.746 466.866 150.847 482.823 121.068 482.996L142.161 384.903L240.309 372.435ZM338.458 822.566L240.387 835.022C240.387 835.029 240.388 835.036 240.389 835.043L142.159 822.566L121.072 724.501L121.26 724.501C151.112 724.651 178.392 739.852 191.21 764.634L149.647 796.634L151.93 813.462L168.758 815.744L199.913 775.279C222.235 786.522 237.275 809.102 240.376 834.937C243.292 808.692 257.915 785.535 280.27 774.113L312.32 815.742L329.148 813.46L331.431 796.632L290.043 764.766C303.103 740.325 329.971 725.058 359.543 724.515L338.458 822.566ZM338.46 339.566L240.387 352.022C240.388 352.029 240.388 352.036 240.389 352.043L142.161 339.566L121.074 241.501L121.26 241.501C151.112 241.652 178.392 256.853 191.209 281.635L149.649 313.632L151.932 330.46L168.76 332.742L199.912 292.28C222.237 303.524 237.278 326.107 240.377 351.945C243.291 325.697 257.917 302.538 280.275 291.115L312.322 332.74L329.15 330.458L331.433 313.63L290.045 281.765C303.105 257.325 329.973 242.058 359.545 241.515L338.46 339.566ZM338.46 581.064L240.387 593.52C240.388 593.527 240.388 593.534 240.389 593.541L142.16 581.064L121.074 482.999L121.26 482.999C151.112 483.15 178.392 498.351 191.21 523.132L149.649 555.13L151.932 571.958L168.76 574.24L199.913 533.777C222.238 545.022 237.278 567.605 240.377 593.443C243.291 567.195 257.914 544.035 280.271 532.611L312.322 574.241L329.15 571.959L331.433 555.131L290.044 523.265C303.103 498.824 329.972 483.556 359.545 483.013L338.46 581.064ZM338.46 98.0625L240.387 110.519C240.388 110.525 240.388 110.532 240.389 110.539L142.16 98.0624L121.075 -5.77547e-05L121.26 0.000918816C151.111 0.151454 178.39 15.3508 191.208 40.1298L149.647 72.1279L151.93 88.956L168.758 91.2382L199.909 50.7773C222.236 62.021 237.28 84.6061 240.378 110.446C243.292 84.1971 257.915 61.0354 280.273 49.6123L312.322 91.2402L329.15 88.958L331.433 72.1298L290.045 40.2646C303.105 15.8252 329.972 0.55846 359.544 0.0146011L338.46 98.0625ZM170.559 762.741C170.558 757.904 166.636 753.982 161.799 753.982C156.961 753.983 153.04 757.904 153.04 762.741C153.04 767.579 156.961 771.501 161.799 771.501C166.636 771.501 170.559 767.579 170.559 762.741ZM170.559 927.788C170.558 922.951 166.636 919.029 161.799 919.029C156.961 919.029 153.04 922.951 153.04 927.788C153.04 932.626 156.961 936.548 161.799 936.548C166.636 936.548 170.559 932.626 170.559 927.788ZM170.561 38.2392C170.56 33.4017 166.638 29.4804 161.801 29.4804C156.963 29.4806 153.042 33.4018 153.042 38.2392C153.042 43.0768 156.963 46.9988 161.801 46.999C166.638 46.999 170.561 43.0769 170.561 38.2392ZM170.561 203.284C170.56 198.446 166.638 194.524 161.801 194.524C156.963 194.525 153.042 198.447 153.042 203.284C153.042 208.122 156.963 212.044 161.801 212.044C166.638 212.044 170.561 208.122 170.561 203.284ZM170.561 279.743C170.561 274.905 166.638 270.983 161.801 270.983C156.963 270.984 153.042 274.906 153.042 279.743C153.042 284.581 156.963 288.503 161.801 288.503C166.638 288.503 170.561 284.581 170.561 279.743ZM170.561 444.788C170.56 439.951 166.638 436.029 161.801 436.029C156.963 436.029 153.042 439.951 153.042 444.788C153.042 449.626 156.963 453.548 161.801 453.548C166.638 453.548 170.561 449.626 170.561 444.788ZM170.561 521.241C170.56 516.404 166.638 512.482 161.801 512.482C156.963 512.483 153.042 516.404 153.042 521.241C153.042 526.079 156.963 530.001 161.801 530.001C166.638 530.001 170.561 526.079 170.561 521.241ZM170.561 686.286C170.56 681.449 166.638 677.527 161.801 677.527C156.963 677.527 153.042 681.449 153.042 686.286C153.042 691.124 156.963 695.046 161.801 695.046C166.638 695.046 170.561 691.124 170.561 686.286ZM211.359 803.543C211.359 798.705 207.437 794.784 202.6 794.784C197.762 794.784 193.841 798.705 193.841 803.543C193.841 808.381 197.762 812.303 202.6 812.303C207.437 812.303 211.359 808.381 211.359 803.543ZM211.359 886.988C211.359 882.151 207.437 878.229 202.6 878.229C197.762 878.23 193.841 882.151 193.841 886.988C193.841 891.826 197.762 895.748 202.6 895.748C207.437 895.748 211.359 891.826 211.359 886.988ZM211.361 320.544C211.361 315.706 207.439 311.784 202.602 311.784C197.764 311.784 193.842 315.706 193.842 320.544C193.842 325.381 197.764 329.303 202.602 329.303C207.439 329.303 211.361 325.381 211.361 320.544ZM211.361 562.042C211.361 557.204 207.439 553.282 202.602 553.282C197.764 553.282 193.842 557.204 193.842 562.042C193.842 566.879 197.764 570.801 202.602 570.801C207.439 570.801 211.361 566.879 211.361 562.042ZM211.361 79.0419C211.361 74.2043 207.439 70.2822 202.602 70.2822C197.764 70.2823 193.843 74.2043 193.843 79.0419C193.843 83.8795 197.764 87.8006 202.602 87.8007C207.439 87.8007 211.361 83.8795 211.361 79.0419ZM211.361 162.487C211.361 157.65 207.439 153.727 202.602 153.727C197.764 153.728 193.843 157.65 193.843 162.487C193.843 167.325 197.764 171.246 202.602 171.246C207.439 171.246 211.361 167.325 211.361 162.487ZM211.361 403.988C211.361 399.151 207.439 395.23 202.602 395.229C197.764 395.23 193.843 399.151 193.843 403.988C193.843 408.826 197.764 412.748 202.602 412.748C207.439 412.748 211.361 408.826 211.361 403.988ZM211.361 645.485C211.361 640.648 207.439 636.726 202.602 636.726C197.764 636.726 193.843 640.648 193.843 645.485C193.843 650.323 197.764 654.244 202.602 654.244C207.439 654.244 211.361 650.323 211.361 645.485ZM249.976 251.268L240.287 272.082L230.6 251.268L199.371 241.394L230.6 231.521L240.287 210.708L249.976 231.521L281.203 241.394L249.976 251.268ZM249.976 492.769L240.287 513.584L230.6 492.769L199.372 482.896L230.6 473.023L240.287 452.21L249.976 473.023L281.203 482.896L249.976 492.769ZM249.976 734.271L240.287 755.086L230.6 734.271L199.372 724.398L230.6 714.525L240.287 693.712L249.976 714.525L281.203 724.398L249.976 734.271ZM359.551 965.987C330.04 965.499 303.523 949.534 290.82 924.703L331.429 893.438L329.146 876.61L312.318 874.328L280.305 915.908C258.303 904.245 243.694 881.411 240.498 855.46L338.458 867.903L359.551 965.987ZM359.553 241.487C330.041 240.999 303.522 225.032 290.82 200.199L331.431 168.933L329.148 152.104L312.32 149.822L280.304 191.407C258.302 179.742 243.693 156.907 240.499 130.955L338.46 143.399L359.553 241.487ZM359.553 482.987C330.042 482.499 303.524 466.533 290.821 441.702L331.431 410.436L329.148 393.608L312.32 391.326L280.305 432.91C258.303 421.246 243.695 398.411 240.5 372.459L338.46 384.903L359.553 482.987ZM359.553 724.485C330.042 723.997 303.524 708.031 290.821 683.2L331.431 651.935L329.148 635.106L312.32 632.824L280.306 674.406C258.304 662.742 243.696 639.909 240.5 613.958L338.46 626.401L359.553 724.485ZM286.682 803.543C286.681 798.705 282.759 794.784 277.922 794.784C273.084 794.784 269.162 798.705 269.162 803.543C269.162 808.38 273.084 812.303 277.922 812.303C282.759 812.303 286.681 808.38 286.682 803.543ZM286.682 886.988C286.681 882.151 282.759 878.23 277.922 878.229C273.084 878.23 269.162 882.151 269.162 886.988C269.162 891.826 273.084 895.748 277.922 895.748C282.759 895.748 286.681 891.826 286.682 886.988ZM286.684 79.0419C286.684 74.2043 282.761 70.2822 277.924 70.2822C273.086 70.2822 269.164 74.2043 269.164 79.0419C269.164 83.8795 273.086 87.8007 277.924 87.8007C282.761 87.8007 286.683 83.8795 286.684 79.0419ZM286.684 162.487C286.684 157.65 282.761 153.727 277.924 153.727C273.086 153.728 269.164 157.65 269.164 162.487C269.164 167.325 273.086 171.246 277.924 171.246C282.761 171.246 286.683 167.325 286.684 162.487ZM286.684 320.544C286.684 315.706 282.761 311.784 277.924 311.784C273.086 311.784 269.165 315.706 269.165 320.544C269.165 325.381 273.086 329.303 277.924 329.303C282.761 329.303 286.683 325.381 286.684 320.544ZM286.684 403.988C286.683 399.151 282.761 395.23 277.924 395.229C273.086 395.23 269.165 399.151 269.165 403.988C269.165 408.826 273.086 412.748 277.924 412.748C282.761 412.748 286.684 408.826 286.684 403.988ZM286.684 562.042C286.683 557.204 282.761 553.282 277.924 553.282C273.086 553.282 269.165 557.204 269.165 562.042C269.165 566.879 273.086 570.801 277.924 570.801C282.761 570.801 286.683 566.879 286.684 562.042ZM286.684 645.485C286.683 640.648 282.761 636.726 277.924 636.726C273.086 636.726 269.165 640.648 269.165 645.485C269.165 650.323 273.086 654.244 277.924 654.244C282.761 654.244 286.683 650.323 286.684 645.485ZM327.48 762.741C327.48 757.904 323.558 753.982 318.721 753.982C313.883 753.983 309.962 757.904 309.962 762.741C309.962 767.579 313.883 771.501 318.721 771.501C323.558 771.501 327.48 767.579 327.48 762.741ZM327.48 927.788C327.48 922.951 323.558 919.029 318.721 919.029C313.883 919.029 309.962 922.951 309.962 927.788C309.962 932.625 313.883 936.548 318.721 936.548C323.558 936.548 327.48 932.626 327.48 927.788ZM327.482 38.2392C327.482 33.4017 323.56 29.4804 318.723 29.4804C313.885 29.4806 309.964 33.4018 309.964 38.2392C309.964 43.0768 313.885 46.9988 318.723 46.999C323.56 46.999 327.482 43.0769 327.482 38.2392ZM327.482 203.284C327.482 198.447 323.56 194.525 318.723 194.525C313.885 194.526 309.964 198.447 309.964 203.284C309.964 208.122 313.885 212.044 318.723 212.044C323.56 212.044 327.482 208.122 327.482 203.284ZM327.482 279.743C327.482 274.906 323.56 270.984 318.723 270.984C313.885 270.985 309.964 274.906 309.964 279.743C309.964 284.581 313.885 288.503 318.723 288.503C323.56 288.503 327.482 284.581 327.482 279.743ZM327.482 444.788C327.482 439.951 323.56 436.029 318.723 436.029C313.885 436.029 309.964 439.951 309.964 444.788C309.964 449.626 313.885 453.548 318.723 453.548C323.56 453.548 327.482 449.626 327.482 444.788ZM327.482 521.241C327.482 516.404 323.56 512.482 318.723 512.482C313.885 512.483 309.964 516.404 309.964 521.241C309.964 526.079 313.885 530.001 318.723 530.001C323.56 530.001 327.482 526.079 327.482 521.241ZM327.482 686.286C327.482 681.449 323.56 677.527 318.723 677.527C313.885 677.527 309.964 681.449 309.964 686.286C309.964 691.124 313.885 695.046 318.723 695.046C323.56 695.046 327.482 691.124 327.482 686.286ZM367.964 852.627L360.589 872.557L353.214 852.627L326.002 845.252L353.214 837.877L360.589 817.946L367.964 837.877L395.176 845.252L367.964 852.627ZM367.966 128.125L360.591 148.055L353.216 128.125L326.004 120.75L353.216 113.375L360.591 93.4443L367.966 113.375L395.178 120.75L367.966 128.125ZM367.966 369.627L360.591 389.557L353.216 369.627L326.004 362.252L353.216 354.877L360.591 334.946L367.966 354.877L395.178 362.252L367.966 369.627ZM367.966 611.125L360.591 631.055L353.216 611.125L326.004 603.75L353.216 596.375L360.591 576.444L367.966 596.375L395.178 603.75L367.966 611.125ZM480.674 855.436C477.418 881.08 462.411 903.446 440.339 914.869L409.125 874.328L392.297 876.61L390.015 893.438L430.665 924.734C418.11 949.867 391.212 965.823 361.433 965.996L382.525 867.903L480.674 855.436ZM480.677 130.932C477.422 156.577 462.414 178.945 440.342 190.368L409.127 149.826L392.299 152.108L390.017 168.936L430.667 200.233C418.113 225.367 391.214 241.324 361.435 241.496L382.527 143.399L480.677 130.932ZM480.676 613.934C477.42 639.578 462.412 661.945 440.34 673.367L409.127 632.827L392.299 635.109L390.017 651.937L430.666 683.233C418.111 708.365 391.213 724.321 361.435 724.494L382.527 626.401L480.676 613.934ZM480.676 372.436C477.421 398.08 462.414 420.446 440.343 431.869L409.127 391.326L392.299 393.608L390.017 410.436L430.667 441.733C418.113 466.866 391.214 482.823 361.436 482.996L382.528 384.903L480.676 372.436ZM382.525 822.566L361.439 724.501L361.625 724.501C391.478 724.652 418.758 739.853 431.575 764.636L390.015 796.634L392.297 813.462L409.125 815.744L440.279 775.279C462.632 786.538 477.683 809.164 480.755 835.043L382.525 822.566ZM382.528 339.566L361.441 241.501L361.627 241.501C391.479 241.652 418.759 256.853 431.576 281.635L390.017 313.632L392.299 330.46L409.127 332.742L440.279 292.28C462.632 303.538 477.683 326.164 480.756 352.043L382.528 339.566ZM382.527 581.064L361.441 482.999L361.627 482.999C391.479 483.15 418.76 498.351 431.577 523.132L390.017 555.13L392.299 571.958L409.127 574.24L440.28 533.777C462.633 545.036 477.684 567.662 480.756 593.541L382.527 581.064ZM382.527 98.0625L361.442 -4.7248e-05L361.627 0.000929323C391.478 0.151485 418.757 15.3508 431.575 40.1298L390.015 72.1279L392.297 88.956L409.125 91.2382L440.276 50.7773C462.63 62.0345 477.682 84.6602 480.756 110.539L382.527 98.0625ZM410.926 762.741C410.926 757.904 407.003 753.982 402.166 753.982C397.329 753.983 393.407 757.904 393.407 762.741C393.407 767.579 397.329 771.501 402.166 771.501C407.004 771.501 410.926 767.579 410.926 762.741ZM410.926 927.788C410.926 922.951 407.003 919.029 402.166 919.029C397.329 919.029 393.407 922.951 393.407 927.788C393.407 932.625 397.329 936.548 402.166 936.548C407.004 936.548 410.926 932.626 410.926 927.788ZM410.928 38.2392C410.928 33.4017 407.006 29.4804 402.168 29.4804C397.331 29.4806 393.409 33.4018 393.409 38.2392C393.409 43.0768 397.33 46.9988 402.168 46.999C407.006 46.999 410.928 43.0769 410.928 38.2392ZM410.928 203.284C410.928 198.446 407.006 194.524 402.168 194.524C397.33 194.525 393.409 198.447 393.409 203.284C393.409 208.122 397.33 212.044 402.168 212.044C407.006 212.044 410.928 208.122 410.928 203.284ZM410.928 279.743C410.928 274.906 407.005 270.984 402.168 270.984C397.331 270.985 393.409 274.906 393.409 279.743C393.409 284.581 397.33 288.503 402.168 288.503C407.006 288.503 410.928 284.581 410.928 279.743ZM410.928 444.788C410.928 439.951 407.005 436.029 402.168 436.029C397.331 436.029 393.409 439.951 393.409 444.788C393.409 449.626 397.33 453.548 402.168 453.548C407.006 453.548 410.928 449.626 410.928 444.788ZM410.928 521.241C410.927 516.404 407.005 512.482 402.168 512.482C397.331 512.483 393.409 516.404 393.409 521.241C393.409 526.079 397.33 530.001 402.168 530.001C407.006 530.001 410.928 526.079 410.928 521.241ZM410.928 686.286C410.927 681.449 407.005 677.527 402.168 677.527C397.331 677.527 393.409 681.449 393.409 686.286C393.409 691.124 397.33 695.046 402.168 695.046C407.006 695.046 410.928 691.124 410.928 686.286ZM451.727 803.543C451.726 798.705 447.804 794.784 442.967 794.784C438.129 794.784 434.207 798.705 434.207 803.543C434.207 808.38 438.129 812.303 442.967 812.303C447.804 812.303 451.726 808.38 451.727 803.543ZM451.727 886.988C451.726 882.151 447.804 878.23 442.967 878.229C438.129 878.23 434.207 882.151 434.207 886.988C434.207 891.826 438.129 895.748 442.967 895.748C447.804 895.748 451.726 891.826 451.727 886.988ZM451.729 79.0419C451.728 74.2043 447.806 70.2822 442.969 70.2822C438.131 70.2822 434.209 74.2043 434.209 79.0419C434.209 83.8795 438.131 87.8007 442.969 87.8007C447.806 87.8007 451.728 83.8795 451.729 79.0419ZM451.729 162.487C451.728 157.65 447.806 153.727 442.969 153.727C438.131 153.728 434.209 157.65 434.209 162.487C434.209 167.325 438.131 171.246 442.969 171.246C447.806 171.246 451.728 167.325 451.729 162.487ZM451.729 320.544C451.728 315.706 447.806 311.784 442.969 311.784C438.131 311.784 434.209 315.706 434.209 320.544C434.209 325.381 438.131 329.303 442.969 329.303C447.806 329.303 451.728 325.381 451.729 320.544ZM451.728 403.988C451.728 399.151 447.806 395.23 442.969 395.229C438.131 395.23 434.209 399.151 434.209 403.988C434.209 408.826 438.131 412.748 442.969 412.748C447.806 412.748 451.728 408.826 451.728 403.988ZM451.728 562.042C451.728 557.204 447.806 553.282 442.969 553.282C438.131 553.282 434.209 557.204 434.209 562.042C434.209 566.879 438.131 570.801 442.969 570.801C447.806 570.801 451.728 566.879 451.728 562.042ZM451.728 645.485C451.728 640.648 447.806 636.726 442.969 636.726C438.131 636.726 434.209 640.648 434.209 645.485C434.209 650.323 438.131 654.244 442.969 654.244C447.806 654.244 451.728 650.323 451.728 645.485ZM490.343 251.268L480.654 272.082L470.967 251.268L439.739 241.394L470.967 231.521L480.654 210.708L490.343 231.521L521.57 241.394L490.343 251.268ZM490.343 492.769L480.654 513.583L470.967 492.769L439.739 482.896L470.967 473.023L480.654 452.21L490.343 473.023L521.57 482.896L490.343 492.769ZM490.343 734.271L480.654 755.086L470.967 734.271L439.739 724.398L470.967 714.525L480.654 693.712L490.343 714.525L521.57 724.398L490.343 734.271ZM579.153 822.566L481.061 835.025C483.953 808.744 498.585 785.548 520.966 774.113L553.016 815.742L569.844 813.46L572.126 796.632L530.738 764.766C543.798 740.325 570.666 725.058 600.238 724.515L579.153 822.566ZM579.155 339.566L481.062 352.025C483.956 325.744 498.589 302.549 520.971 291.115L553.018 332.74L569.846 330.458L572.128 313.63L530.74 281.765C543.8 257.325 570.668 242.058 600.24 241.515L579.155 339.566ZM579.155 581.064L481.062 593.523C483.955 567.242 498.587 544.046 520.968 532.611L553.018 574.24L569.846 571.958L572.128 555.13L530.74 523.264C543.8 498.824 570.668 483.556 600.24 483.013L579.155 581.064ZM579.155 98.0625L481.063 110.521C483.957 84.2418 498.588 61.0475 520.968 49.6132L553.018 91.2412L569.846 88.9589L572.128 72.1308L530.74 40.2646C543.8 15.8252 570.668 0.558471 600.239 0.0146116L579.155 98.0625ZM600.246 965.987C570.736 965.499 544.218 949.534 531.516 924.703L572.124 893.438L569.842 876.61L553.014 874.328L521 915.908C498.998 904.245 484.389 881.411 481.193 855.46L579.153 867.903L600.246 965.987ZM600.248 241.487C570.736 240.999 544.218 225.032 531.516 200.199L572.126 168.933L569.844 152.104L553.016 149.822L520.999 191.407C498.997 179.742 484.389 156.907 481.194 130.955L579.155 143.399L600.248 241.487ZM600.248 482.987C570.737 482.499 544.219 466.533 531.517 441.702L572.126 410.436L569.844 393.608L553.016 391.326L521 432.91C498.998 421.246 484.39 398.411 481.195 372.459L579.155 384.903L600.248 482.987ZM600.248 724.485C570.737 723.997 544.219 708.031 531.517 683.2L572.126 651.935L569.844 635.106L553.016 632.824L521.001 674.406C499 662.743 484.391 639.909 481.195 613.958L579.155 626.401L600.248 724.485ZM527.377 803.543C527.377 798.705 523.455 794.784 518.617 794.784C513.78 794.784 509.858 798.705 509.857 803.543C509.858 808.38 513.78 812.303 518.617 812.303C523.455 812.303 527.377 808.38 527.377 803.543ZM527.377 886.988C527.377 882.151 523.455 878.23 518.617 878.229C513.78 878.23 509.858 882.151 509.857 886.988C509.858 891.826 513.78 895.748 518.617 895.748C523.455 895.748 527.377 891.826 527.377 886.988ZM527.379 79.042C527.379 74.2043 523.457 70.2822 518.619 70.2822C513.782 70.2823 509.86 74.2044 509.86 79.042C509.861 83.8794 513.782 87.8006 518.619 87.8007C523.457 87.8007 527.379 83.8795 527.379 79.042ZM527.379 162.487C527.379 157.65 523.457 153.727 518.619 153.727C513.782 153.728 509.86 157.65 509.86 162.487C509.861 167.325 513.782 171.246 518.619 171.246C523.457 171.246 527.379 167.325 527.379 162.487ZM527.379 320.544C527.379 315.706 523.457 311.784 518.619 311.784C513.782 311.784 509.86 315.706 509.86 320.544C509.861 325.381 513.782 329.303 518.619 329.303C523.457 329.303 527.379 325.381 527.379 320.544ZM527.379 403.988C527.379 399.151 523.457 395.23 518.619 395.229C513.782 395.23 509.861 399.151 509.86 403.988C509.86 408.826 513.782 412.748 518.619 412.748C523.457 412.748 527.379 408.826 527.379 403.988ZM527.379 562.042C527.379 557.204 523.457 553.282 518.619 553.282C513.782 553.282 509.86 557.204 509.86 562.042C509.861 566.879 513.782 570.801 518.619 570.801C523.457 570.801 527.379 566.879 527.379 562.042ZM527.379 645.485C527.379 640.648 523.457 636.726 518.619 636.726C513.782 636.726 509.86 640.648 509.86 645.485C509.861 650.323 513.782 654.244 518.619 654.244C523.457 654.244 527.379 650.323 527.379 645.485ZM568.176 762.741C568.176 757.904 564.253 753.982 559.416 753.982C554.579 753.983 550.657 757.904 550.657 762.741C550.657 767.579 554.579 771.501 559.416 771.501C564.254 771.501 568.176 767.579 568.176 762.741ZM568.176 927.788C568.176 922.951 564.253 919.029 559.416 919.029C554.579 919.029 550.657 922.951 550.657 927.788C550.657 932.625 554.579 936.548 559.416 936.548C564.254 936.548 568.176 932.626 568.176 927.788ZM568.178 38.2392C568.178 33.4017 564.256 29.4804 559.418 29.4804C554.581 29.4806 550.659 33.4018 550.659 38.2392C550.659 43.0768 554.58 46.9988 559.418 46.999C564.256 46.999 568.178 43.0769 568.178 38.2392ZM568.178 203.284C568.178 198.447 564.256 194.525 559.418 194.525C554.581 194.526 550.659 198.447 550.659 203.284C550.659 208.122 554.58 212.044 559.418 212.044C564.256 212.044 568.178 208.122 568.178 203.284ZM568.178 279.743C568.178 274.906 564.255 270.984 559.418 270.984C554.58 270.985 550.659 274.906 550.659 279.743C550.659 284.581 554.58 288.503 559.418 288.503C564.256 288.503 568.178 284.581 568.178 279.743ZM568.178 444.788C568.178 439.951 564.255 436.029 559.418 436.029C554.581 436.029 550.659 439.951 550.659 444.788C550.659 449.626 554.58 453.548 559.418 453.548C564.256 453.548 568.178 449.626 568.178 444.788ZM568.178 521.241C568.177 516.404 564.255 512.482 559.418 512.482C554.581 512.483 550.659 516.404 550.659 521.241C550.659 526.079 554.58 530.001 559.418 530.001C564.256 530.001 568.178 526.079 568.178 521.241ZM568.178 686.286C568.177 681.449 564.255 677.527 559.418 677.527C554.581 677.527 550.659 681.449 550.659 686.286C550.659 691.124 554.58 695.046 559.418 695.046C564.256 695.046 568.178 691.124 568.178 686.286ZM608.659 852.627L601.284 872.557L593.909 852.627L566.697 845.252L593.909 837.877L601.284 817.946L608.659 837.877L635.871 845.252L608.659 852.627ZM608.661 128.125L601.286 148.055L593.911 128.125L566.699 120.75L593.911 113.375L601.286 93.4443L608.661 113.375L635.873 120.75L608.661 128.125ZM608.661 369.627L601.286 389.557L593.911 369.627L566.699 362.252L593.911 354.877L601.286 334.946L608.661 354.877L635.873 362.252L608.661 369.627ZM608.661 611.125L601.286 631.055L593.911 611.125L566.699 603.75L593.911 596.375L601.286 576.444L608.661 596.375L635.873 603.75L608.661 611.125ZM721.369 855.436C718.113 881.08 703.106 903.446 681.034 914.869L649.82 874.328L632.992 876.61L630.71 893.438L671.36 924.734C658.806 949.867 631.907 965.823 602.129 965.996L623.222 867.903L721.369 855.436ZM721.372 130.932C718.117 156.577 703.109 178.945 681.036 190.368L649.822 149.827L632.994 152.109L630.712 168.937L671.362 200.234C658.808 225.367 631.909 241.324 602.13 241.496L623.223 143.399L721.372 130.932ZM721.371 372.436C718.116 398.08 703.109 420.446 681.038 431.869L649.822 391.326L632.994 393.608L630.712 410.436L671.362 441.733C658.808 466.867 631.909 482.823 602.13 482.996L623.223 384.903L721.371 372.436ZM721.371 613.934C718.115 639.578 703.108 661.943 681.036 673.366L649.822 632.826L632.994 635.108L630.712 651.936L671.362 683.232C658.808 708.365 631.909 724.321 602.13 724.494L623.223 626.401L721.371 613.934ZM819.441 822.566L721.447 835.013C721.448 835.023 721.449 835.033 721.45 835.043L623.222 822.566L602.135 724.501L602.32 724.501C632.173 724.652 659.453 739.854 672.27 764.636L630.71 796.634L632.992 813.462L649.82 815.744L680.975 775.279C703.205 786.477 718.212 808.919 721.397 834.621C724.395 808.508 738.988 785.493 761.251 774.116L793.299 815.742L810.127 813.46L812.409 796.632L771.025 764.77C784.084 740.328 810.952 725.059 840.525 724.515L819.441 822.566ZM819.443 339.566L721.448 352.013C721.449 352.023 721.45 352.033 721.451 352.043L623.223 339.566L602.137 241.501L602.322 241.501C632.175 241.652 659.454 256.853 672.271 281.635L630.712 313.632L632.994 330.46L649.822 332.742L680.975 292.28C703.207 303.478 718.215 325.921 721.399 351.625C724.397 325.51 738.989 302.493 761.255 291.116L793.301 332.74L810.129 330.458L812.411 313.63L771.026 281.767C784.086 257.326 810.955 242.058 840.527 241.515L819.443 339.566ZM819.443 581.068L721.448 593.515C721.449 593.523 721.45 593.532 721.451 593.541L623.223 581.064L602.137 482.999L602.322 482.999C632.175 483.15 659.455 498.351 672.272 523.132L630.712 555.13L632.994 571.958L649.822 574.24L680.976 533.777C703.206 544.974 718.213 567.415 721.398 593.116C724.399 567.005 738.993 543.993 761.256 532.618L793.303 574.242L810.131 571.96L812.413 555.132L771.028 523.269C784.088 498.829 810.956 483.562 840.527 483.019L819.443 581.068ZM819.443 98.0625L721.448 110.509C721.449 110.519 721.45 110.529 721.451 110.539L623.223 98.0625L602.138 -3.67268e-05L602.322 0.000939844C632.173 0.151496 659.452 15.3508 672.271 40.1298L630.71 72.1279L632.992 88.956L649.82 91.2382L680.972 50.7773C703.205 61.9739 718.214 84.4168 721.399 110.121C724.397 84.0058 738.991 60.9889 761.258 49.6133L793.305 91.2383L810.133 88.956L812.415 72.1279L771.028 40.2627C784.088 15.8244 810.956 0.558556 840.526 0.0146221L819.443 98.0625ZM651.621 762.741C651.621 757.904 647.699 753.982 642.861 753.982C638.024 753.983 634.103 757.904 634.103 762.741C634.103 767.579 638.024 771.501 642.861 771.501C647.699 771.501 651.621 767.579 651.621 762.741ZM651.621 927.788C651.621 922.951 647.699 919.029 642.861 919.029C638.024 919.029 634.103 922.951 634.102 927.788C634.103 932.625 638.024 936.548 642.861 936.548C647.699 936.548 651.621 932.626 651.621 927.788ZM651.623 38.2392C651.623 33.4017 647.701 29.4804 642.863 29.4804C638.026 29.4806 634.105 33.4018 634.104 38.2392C634.104 43.0768 638.026 46.9988 642.863 46.999C647.701 46.999 651.623 43.0769 651.623 38.2392ZM651.623 203.284C651.623 198.447 647.701 194.524 642.863 194.524C638.026 194.525 634.105 198.447 634.104 203.284C634.104 208.122 638.026 212.044 642.863 212.044C647.701 212.044 651.623 208.122 651.623 203.284ZM651.623 279.743C651.623 274.906 647.701 270.983 642.863 270.983C638.026 270.984 634.104 274.906 634.104 279.743C634.105 284.581 638.026 288.503 642.863 288.503C647.701 288.503 651.623 284.581 651.623 279.743ZM651.623 444.788C651.623 439.951 647.701 436.029 642.863 436.029C638.026 436.029 634.105 439.951 634.104 444.788C634.104 449.626 638.026 453.548 642.863 453.548C647.701 453.548 651.623 449.626 651.623 444.788ZM651.623 521.241C651.623 516.404 647.701 512.482 642.863 512.482C638.026 512.483 634.105 516.404 634.104 521.241C634.104 526.079 638.026 530.001 642.863 530.001C647.701 530.001 651.623 526.079 651.623 521.241ZM651.623 686.286C651.623 681.449 647.701 677.527 642.863 677.527C638.026 677.527 634.105 681.449 634.104 686.286C634.104 691.124 638.026 695.046 642.863 695.046C647.701 695.046 651.623 691.124 651.623 686.286ZM692.422 803.543C692.422 798.705 688.5 794.784 683.662 794.784C678.825 794.784 674.902 798.705 674.902 803.543C674.902 808.38 678.825 812.303 683.662 812.303C688.5 812.303 692.422 808.38 692.422 803.543ZM692.422 886.988C692.422 882.151 688.5 878.23 683.662 878.229C678.825 878.23 674.904 882.151 674.903 886.988C674.903 891.826 678.825 895.748 683.662 895.748C688.5 895.748 692.422 891.826 692.422 886.988ZM692.424 79.042C692.424 74.2043 688.502 70.2822 683.664 70.2822C678.826 70.2823 674.904 74.2043 674.904 79.042C674.904 83.8795 678.826 87.8007 683.664 87.8007C688.502 87.8007 692.424 83.8795 692.424 79.042ZM692.424 162.487C692.424 157.65 688.502 153.728 683.664 153.728C678.826 153.728 674.904 157.65 674.904 162.487C674.904 167.325 678.827 171.246 683.664 171.246C688.502 171.246 692.424 167.325 692.424 162.487ZM692.424 320.544C692.424 315.706 688.502 311.784 683.664 311.784C678.826 311.784 674.904 315.706 674.904 320.544C674.904 325.381 678.827 329.303 683.664 329.303C688.502 329.303 692.424 325.381 692.424 320.544ZM692.424 403.988C692.424 399.151 688.501 395.23 683.664 395.229C678.827 395.23 674.905 399.151 674.904 403.988C674.904 408.826 678.826 412.748 683.664 412.748C688.502 412.748 692.424 408.826 692.424 403.988ZM692.424 562.042C692.424 557.204 688.502 553.282 683.664 553.282C678.826 553.282 674.904 557.204 674.904 562.042C674.904 566.879 678.827 570.801 683.664 570.801C688.502 570.801 692.424 566.879 692.424 562.042ZM692.424 645.485C692.424 640.648 688.502 636.726 683.664 636.726C678.826 636.726 674.904 640.648 674.904 645.485C674.904 650.323 678.827 654.244 683.664 654.244C688.502 654.244 692.424 650.323 692.424 645.485ZM731.038 251.268L721.35 272.081L711.662 251.268L680.435 241.394L711.662 231.521L721.35 210.708L731.038 231.521L762.266 241.395L731.038 251.268ZM731.038 492.77L721.35 513.583L711.662 492.769L680.435 482.896L711.662 473.023L721.35 452.21L731.038 473.023L762.266 482.896L731.038 492.77ZM731.038 734.271L721.35 755.085L711.662 734.271L680.435 724.398L711.662 714.525L721.35 693.712L731.038 714.525L762.266 724.398L731.038 734.271ZM840.536 241.487C811.023 240.999 784.504 225.032 771.802 200.198L812.413 168.931L810.131 152.103L793.303 149.82L761.286 191.405C739.285 179.74 724.676 156.907 721.481 130.955L819.443 143.399L840.536 241.487ZM840.533 965.987C811.023 965.498 784.506 949.532 771.804 924.701L812.411 893.436L810.129 876.608L793.301 874.326L761.287 915.906C739.287 904.242 724.678 881.409 721.482 855.459L819.441 867.902L840.533 965.987ZM840.535 482.987C811.025 482.499 784.508 466.534 771.805 441.704L812.413 410.438L810.131 393.61L793.303 391.328L761.288 432.91C739.287 421.246 724.679 398.411 721.483 372.46L819.443 384.903L840.535 482.987ZM840.535 724.491C811.023 724.003 784.505 708.036 771.803 683.204L812.413 651.938L810.131 635.11L793.303 632.828L761.288 674.411C739.287 662.747 724.679 639.913 721.483 613.962L819.443 626.405L840.535 724.491ZM767.664 803.544C767.664 798.706 763.742 794.784 758.904 794.784C754.067 794.784 750.146 798.706 750.145 803.544C750.146 808.381 754.067 812.303 758.904 812.303C763.742 812.303 767.664 808.381 767.664 803.544ZM767.664 886.989C767.664 882.152 763.742 878.229 758.904 878.229C754.067 878.23 750.146 882.152 750.145 886.989C750.146 891.827 754.067 895.748 758.904 895.748C763.742 895.748 767.664 891.827 767.664 886.989ZM767.666 79.042C767.666 74.2043 763.744 70.2822 758.906 70.2822C754.069 70.2824 750.147 74.2044 750.147 79.042C750.148 83.8794 754.069 87.8006 758.906 87.8008C763.744 87.8008 767.666 83.8795 767.666 79.042ZM767.666 162.487C767.666 157.65 763.744 153.728 758.906 153.728C754.069 153.728 750.147 157.65 750.147 162.487C750.148 167.325 754.069 171.246 758.906 171.246C763.744 171.246 767.666 167.325 767.666 162.487ZM767.666 320.544C767.666 315.706 763.744 311.784 758.906 311.784C754.069 311.784 750.147 315.706 750.147 320.544C750.148 325.381 754.069 329.303 758.906 329.303C763.744 329.303 767.666 325.381 767.666 320.544ZM767.666 403.988C767.666 399.151 763.744 395.229 758.906 395.229C754.069 395.23 750.148 399.151 750.147 403.988C750.147 408.826 754.069 412.748 758.906 412.748C763.744 412.748 767.666 408.826 767.666 403.988ZM767.666 562.046C767.666 557.208 763.744 553.286 758.906 553.286C754.069 553.286 750.147 557.208 750.147 562.046C750.148 566.883 754.069 570.804 758.906 570.805C763.744 570.805 767.666 566.883 767.666 562.046ZM767.666 645.489C767.666 640.652 763.744 636.729 758.906 636.729C754.069 636.73 750.147 640.652 750.147 645.489C750.148 650.327 754.069 654.248 758.906 654.248C763.744 654.248 767.666 650.327 767.666 645.489ZM808.463 762.741C808.463 757.904 804.541 753.982 799.703 753.982C794.866 753.983 790.945 757.904 790.944 762.741C790.944 767.579 794.866 771.501 799.703 771.501C804.541 771.501 808.463 767.579 808.463 762.741ZM808.463 927.788C808.462 922.951 804.541 919.029 799.703 919.029C794.866 919.029 790.945 922.951 790.944 927.788C790.944 932.626 794.866 936.548 799.703 936.548C804.541 936.548 808.463 932.626 808.463 927.788ZM808.465 38.2392C808.465 33.4017 804.543 29.4804 799.705 29.4804C794.868 29.4807 790.946 33.4019 790.946 38.2392C790.946 43.0768 794.868 46.9988 799.705 46.999C804.543 46.999 808.465 43.0769 808.465 38.2392ZM808.465 203.284C808.465 198.447 804.543 194.525 799.705 194.525C794.868 194.526 790.946 198.447 790.946 203.284C790.946 208.122 794.868 212.044 799.705 212.044C804.543 212.044 808.465 208.122 808.465 203.284ZM808.465 279.743C808.465 274.906 804.543 270.984 799.705 270.984C794.868 270.985 790.946 274.906 790.946 279.743C790.946 284.581 794.868 288.503 799.705 288.503C804.543 288.503 808.465 284.581 808.465 279.743ZM808.465 444.788C808.465 439.951 804.543 436.029 799.705 436.029C794.868 436.029 790.946 439.951 790.946 444.788C790.946 449.626 794.868 453.548 799.705 453.548C804.543 453.548 808.465 449.626 808.465 444.788ZM808.465 521.245C808.465 516.408 804.543 512.486 799.705 512.486C794.868 512.487 790.946 516.408 790.946 521.245C790.946 526.083 794.868 530.005 799.705 530.005C804.543 530.005 808.465 526.083 808.465 521.245ZM808.465 686.29C808.465 681.453 804.543 677.531 799.705 677.531C794.868 677.531 790.946 681.453 790.946 686.29C790.946 691.128 794.868 695.05 799.705 695.05C804.543 695.05 808.465 691.128 808.465 686.29ZM848.946 128.125L841.571 148.055L834.196 128.125L806.984 120.75L834.196 113.375L841.571 93.4443L848.946 113.375L876.158 120.75L848.946 128.125ZM848.946 369.627L841.571 389.557L834.196 369.627L806.984 362.252L834.196 354.877L841.571 334.946L848.946 354.877L876.158 362.252L848.946 369.627ZM848.946 611.127L841.571 631.057L834.196 611.127L806.984 603.752L834.196 596.377L841.571 576.446L848.946 596.377L876.158 603.752L848.946 611.127ZM848.946 852.627L841.571 872.557L834.196 852.627L806.984 845.252L834.196 837.877L841.571 817.946L848.946 837.877L876.158 845.252L848.946 852.627ZM961.658 855.436C958.402 881.08 943.395 903.446 921.323 914.869L890.107 874.326L873.279 876.608L870.997 893.436L911.649 924.734C899.095 949.868 872.195 965.824 842.416 965.996L863.509 867.902L961.658 855.436ZM961.659 130.932C958.405 156.577 943.397 178.945 921.325 190.368L890.109 149.824L873.281 152.106L870.999 168.935L911.65 200.231C899.096 225.366 872.197 241.324 842.417 241.496L863.511 143.399L961.659 130.932ZM961.658 613.937C958.403 639.582 943.396 661.949 921.324 673.372L890.109 632.83L873.281 635.112L870.999 651.94L911.649 683.237C899.095 708.371 872.196 724.328 842.417 724.5L863.511 626.405L961.658 613.937ZM961.658 372.436C958.403 398.08 943.396 420.446 921.325 431.869L890.109 391.326L873.281 393.608L870.999 410.436L911.649 441.733C899.095 466.866 872.197 482.823 842.418 482.996L863.511 384.903L961.658 372.436ZM1059.77 822.566L961.735 835.018C961.736 835.026 961.737 835.034 961.738 835.043L863.509 822.566L842.422 724.501L842.609 724.501C872.461 724.651 899.741 739.852 912.559 764.633L870.997 796.632L873.279 813.46L890.107 815.742L921.262 775.278C943.537 786.497 958.56 809.007 961.705 834.773C964.663 808.596 979.271 785.512 1001.58 774.114L1033.63 815.74L1050.46 813.458L1052.74 796.63L1011.35 764.766C1024.41 740.326 1051.28 725.059 1080.85 724.515L1059.77 822.566ZM1059.77 339.566L961.735 352.018C961.736 352.026 961.737 352.034 961.738 352.043L863.511 339.566L842.424 241.501L842.609 241.501C872.462 241.651 899.741 256.853 912.559 281.635L870.999 313.632L873.281 330.46L890.109 332.742L921.262 292.28C943.538 303.5 958.561 326.01 961.705 351.777C964.663 325.598 979.271 302.513 1001.58 291.115L1033.63 332.74L1050.46 330.458L1052.74 313.63L1011.35 281.764C1024.41 257.325 1051.28 242.058 1080.85 241.515L1059.77 339.566ZM1059.77 581.068L961.735 593.52C961.736 593.528 961.737 593.536 961.738 593.545L863.511 581.068L842.424 483.005L842.609 483.005C872.461 483.155 899.741 498.356 912.559 523.137L870.999 555.134L873.281 571.962L890.109 574.244L921.262 533.782C943.536 545 958.558 567.507 961.704 593.271C964.664 567.096 979.271 544.014 1001.58 532.617L1033.62 574.241L1050.45 571.959L1052.74 555.131L1011.35 523.268C1024.41 498.829 1051.28 483.562 1080.85 483.019L1059.77 581.068ZM1059.77 98.0625L961.735 110.514C961.736 110.522 961.737 110.531 961.738 110.539L863.511 98.0625L842.425 -2.62235e-05L842.609 0.000950347C872.459 0.151482 899.738 15.35 912.557 40.1279L870.999 72.124L873.281 88.9521L890.109 91.2344L921.259 50.7773C943.536 61.9959 958.56 84.5054 961.705 110.273C964.663 84.0968 979.27 61.0137 1001.58 49.6152L1033.62 91.2402L1050.45 88.958L1052.74 72.1299L1011.35 40.2666C1024.41 15.8261 1051.28 0.558585 1080.85 0.0146326L1059.77 98.0625ZM891.908 762.741C891.908 757.904 887.986 753.982 883.148 753.982C878.311 753.983 874.39 757.904 874.39 762.741C874.39 767.579 878.311 771.501 883.148 771.501C887.986 771.501 891.908 767.579 891.908 762.741ZM891.908 927.789C891.908 922.951 887.986 919.029 883.148 919.029C878.311 919.029 874.39 922.952 874.39 927.789C874.39 932.626 878.311 936.548 883.148 936.548C887.986 936.548 891.908 932.627 891.908 927.789ZM891.91 38.2392C891.91 33.4017 887.988 29.4804 883.15 29.4804C878.313 29.4807 874.392 33.4019 874.392 38.2392C874.392 43.0768 878.313 46.9988 883.15 46.999C887.988 46.999 891.91 43.0769 891.91 38.2392ZM891.91 203.284C891.91 198.447 887.988 194.524 883.15 194.524C878.313 194.525 874.392 198.447 874.392 203.284C874.392 208.122 878.313 212.044 883.15 212.044C887.988 212.044 891.91 208.122 891.91 203.284ZM891.91 279.743C891.91 274.905 887.988 270.983 883.15 270.983C878.313 270.984 874.392 274.906 874.392 279.743C874.392 284.581 878.313 288.503 883.15 288.503C887.988 288.503 891.91 284.581 891.91 279.743ZM891.91 444.788C891.91 439.95 887.988 436.029 883.15 436.029C878.313 436.029 874.392 439.951 874.392 444.788C874.392 449.626 878.313 453.548 883.15 453.548C887.988 453.548 891.91 449.626 891.91 444.788ZM891.91 521.245C891.91 516.407 887.988 512.485 883.15 512.485C878.313 512.486 874.392 516.408 874.392 521.245C874.392 526.083 878.313 530.005 883.15 530.005C887.988 530.005 891.91 526.083 891.91 521.245ZM891.91 686.29C891.91 681.453 887.988 677.531 883.15 677.531C878.313 677.531 874.392 681.453 874.392 686.29C874.392 691.128 878.313 695.05 883.15 695.05C887.988 695.05 891.91 691.128 891.91 686.29ZM932.709 803.544C932.709 798.706 928.788 794.784 923.95 794.784C919.113 794.784 915.191 798.706 915.19 803.544C915.191 808.381 919.113 812.303 923.95 812.303C928.788 812.303 932.709 808.381 932.709 803.544ZM932.709 886.989C932.709 882.152 928.788 878.23 923.95 878.229C919.113 878.23 915.191 882.152 915.19 886.989C915.191 891.827 919.113 895.748 923.95 895.748C928.788 895.748 932.709 891.827 932.709 886.989ZM932.711 79.042C932.711 74.2044 928.79 70.2824 923.952 70.2822C919.114 70.2822 915.192 74.2043 915.192 79.042C915.193 83.8795 919.115 87.8007 923.952 87.8008C928.79 87.8006 932.711 83.8794 932.711 79.042ZM932.711 162.487C932.711 157.65 928.79 153.728 923.952 153.728C919.114 153.728 915.192 157.65 915.192 162.487C915.193 167.325 919.115 171.246 923.952 171.246C928.79 171.246 932.711 167.325 932.711 162.487ZM932.711 320.544C932.711 315.706 928.79 311.784 923.952 311.784C919.114 311.784 915.192 315.706 915.192 320.544C915.193 325.381 919.115 329.303 923.952 329.303C928.79 329.302 932.711 325.381 932.711 320.544ZM932.711 403.988C932.711 399.151 928.789 395.23 923.952 395.229C919.115 395.229 915.193 399.151 915.192 403.988C915.192 408.826 919.114 412.748 923.952 412.748C928.79 412.748 932.711 408.826 932.711 403.988ZM932.711 562.046C932.711 557.208 928.79 553.286 923.952 553.286C919.114 553.286 915.192 557.208 915.192 562.046C915.193 566.883 919.115 570.805 923.952 570.805C928.79 570.804 932.711 566.883 932.711 562.046ZM932.711 645.489C932.711 640.652 928.79 636.73 923.952 636.729C919.114 636.73 915.192 640.652 915.192 645.489C915.193 650.327 919.115 654.248 923.952 654.248C928.79 654.248 932.711 650.327 932.711 645.489ZM971.325 251.268L961.637 272.081L951.949 251.268L920.722 241.395L951.949 231.521L961.637 210.708L971.325 231.521L1002.55 241.395L971.325 251.268ZM971.325 492.77L961.637 513.583L951.949 492.77L920.722 482.896L951.949 473.023L961.637 452.21L971.325 473.023L1002.55 482.896L971.325 492.77ZM971.325 734.271L961.637 755.085L951.949 734.271L920.722 724.398L951.949 714.525L961.637 693.712L971.325 714.525L1002.55 724.398L971.325 734.271ZM1080.86 724.491C1051.35 724.003 1024.83 708.036 1012.12 683.204L1052.74 651.938L1050.45 635.11L1033.62 632.828L1001.61 674.411C979.609 662.747 965.001 639.913 961.806 613.962L1059.77 626.405L1080.86 724.491ZM1080.86 241.487C1051.35 240.999 1024.83 225.032 1012.13 200.199L1052.74 168.933L1050.46 152.104L1033.63 149.822L1001.61 191.406C979.61 179.742 965.001 156.908 961.807 130.956L1059.77 143.399L1080.86 241.487ZM1080.86 965.987C1051.35 965.498 1024.83 949.533 1012.13 924.702L1052.74 893.437L1050.46 876.608L1033.63 874.326L1001.61 915.907C979.612 904.243 965.002 881.41 961.807 855.459L1059.77 867.902L1080.86 965.987ZM1080.86 482.987C1051.35 482.499 1024.83 466.534 1012.13 441.703L1052.74 410.437L1050.46 393.608L1033.63 391.326L1001.61 432.91C979.611 421.246 965.003 398.411 961.808 372.46L1059.77 384.903L1080.86 482.987ZM1007.99 562.046C1007.99 557.208 1004.07 553.286 999.228 553.286C994.391 553.286 990.47 557.208 990.47 562.046C990.47 566.883 994.391 570.805 999.228 570.805C1004.07 570.805 1007.99 566.883 1007.99 562.046ZM1007.99 645.489C1007.99 640.652 1004.07 636.73 999.228 636.729C994.391 636.73 990.47 640.652 990.47 645.489C990.47 650.327 994.391 654.248 999.228 654.248C1004.07 654.248 1007.99 650.327 1007.99 645.489ZM1007.99 803.541C1007.99 798.704 1004.07 794.782 999.228 794.782C994.391 794.782 990.47 798.704 990.47 803.541C990.47 808.379 994.391 812.301 999.228 812.301C1004.07 812.301 1007.99 808.379 1007.99 803.541ZM1007.99 886.986C1007.99 882.149 1004.07 878.228 999.228 878.228C994.391 878.228 990.47 882.149 990.47 886.986C990.47 891.824 994.391 895.746 999.228 895.746C1004.07 895.746 1007.99 891.824 1007.99 886.986ZM1007.99 79.042C1007.99 74.2043 1004.07 70.2823 999.23 70.2822C994.393 70.2824 990.472 74.2044 990.472 79.042C990.472 83.8794 994.393 87.8006 999.23 87.8008C1004.07 87.8007 1007.99 83.8795 1007.99 79.042ZM1007.99 162.487C1007.99 157.65 1004.07 153.728 999.23 153.728C994.393 153.728 990.472 157.65 990.472 162.487C990.472 167.325 994.393 171.246 999.23 171.246C1004.07 171.246 1007.99 167.325 1007.99 162.487ZM1007.99 320.544C1007.99 315.706 1004.07 311.784 999.23 311.784C994.393 311.784 990.472 315.706 990.472 320.544C990.472 325.381 994.393 329.303 999.23 329.303C1004.07 329.303 1007.99 325.381 1007.99 320.544ZM1007.99 403.988C1007.99 399.151 1004.07 395.23 999.23 395.229C994.393 395.23 990.472 399.151 990.472 403.988C990.472 408.826 994.393 412.748 999.23 412.748C1004.07 412.748 1007.99 408.826 1007.99 403.988ZM1048.79 521.245C1048.79 516.408 1044.86 512.486 1040.03 512.486C1035.19 512.487 1031.27 516.408 1031.27 521.245C1031.27 526.083 1035.19 530.005 1040.03 530.005C1044.86 530.005 1048.79 526.083 1048.79 521.245ZM1048.79 686.29C1048.79 681.453 1044.86 677.531 1040.03 677.531C1035.19 677.531 1031.27 681.453 1031.27 686.29C1031.27 691.128 1035.19 695.05 1040.03 695.05C1044.86 695.05 1048.79 691.128 1048.79 686.29ZM1048.79 762.743C1048.79 757.906 1044.86 753.984 1040.03 753.984C1035.19 753.985 1031.27 757.906 1031.27 762.743C1031.27 767.581 1035.19 771.503 1040.03 771.503C1044.86 771.503 1048.79 767.581 1048.79 762.743ZM1048.79 927.788C1048.79 922.951 1044.86 919.029 1040.03 919.029C1035.19 919.03 1031.27 922.951 1031.27 927.788C1031.27 932.626 1035.19 936.547 1040.03 936.548C1044.86 936.548 1048.79 932.626 1048.79 927.788ZM1048.79 38.2392C1048.79 33.4018 1044.87 29.4805 1040.03 29.4805C1035.19 29.4807 1031.27 33.4019 1031.27 38.2392C1031.27 43.0768 1035.19 46.9988 1040.03 46.999C1044.87 46.9989 1048.79 43.0769 1048.79 38.2392ZM1048.79 203.284C1048.79 198.447 1044.87 194.525 1040.03 194.525C1035.19 194.526 1031.27 198.447 1031.27 203.284C1031.27 208.122 1035.19 212.044 1040.03 212.044C1044.87 212.044 1048.79 208.122 1048.79 203.284ZM1048.79 279.743C1048.79 274.906 1044.87 270.984 1040.03 270.984C1035.19 270.985 1031.27 274.906 1031.27 279.743C1031.27 284.581 1035.19 288.503 1040.03 288.503C1044.87 288.503 1048.79 284.581 1048.79 279.743ZM1048.79 444.788C1048.79 439.951 1044.87 436.029 1040.03 436.029C1035.19 436.03 1031.27 439.951 1031.27 444.788C1031.27 449.626 1035.19 453.548 1040.03 453.548C1044.87 453.548 1048.79 449.626 1048.79 444.788ZM1089.27 611.127L1081.89 631.057L1074.52 611.127L1047.31 603.752L1074.52 596.377L1081.89 576.446L1089.27 596.377L1116.48 603.752L1089.27 611.127ZM1089.27 128.125L1081.9 148.055L1074.52 128.125L1047.31 120.75L1074.52 113.375L1081.9 93.4443L1089.27 113.375L1116.48 120.75L1089.27 128.125ZM1089.27 369.627L1081.9 389.557L1074.52 369.627L1047.31 362.252L1074.52 354.877L1081.9 334.946L1089.27 354.877L1116.48 362.252L1089.27 369.627ZM1089.27 852.627L1081.9 872.557L1074.52 852.627L1047.31 845.252L1074.52 837.877L1081.9 817.946L1089.27 837.877L1116.48 845.252L1089.27 852.627ZM1201.98 613.937C1198.73 639.582 1183.72 661.949 1161.65 673.372L1130.43 632.829L1113.6 635.111L1111.32 651.939L1151.97 683.236C1139.42 708.37 1112.52 724.327 1082.74 724.5L1103.83 626.405L1201.98 613.937ZM1201.98 855.436C1198.73 881.08 1183.72 903.446 1161.65 914.869L1130.43 874.326L1113.6 876.608L1111.32 893.437L1151.97 924.734C1139.42 949.867 1112.52 965.824 1082.74 965.996L1103.83 867.902L1201.98 855.436ZM1201.98 130.932C1198.73 156.577 1183.72 178.945 1161.65 190.368L1130.43 149.824L1113.61 152.106L1111.32 168.935L1151.97 200.231C1139.42 225.366 1112.52 241.324 1082.74 241.496L1103.83 143.399L1201.98 130.932ZM1201.98 372.436C1198.73 398.08 1183.72 420.446 1161.65 431.869L1130.43 391.326L1113.61 393.608L1111.32 410.437L1151.97 441.733C1139.42 466.866 1112.52 482.823 1082.74 482.996L1103.83 384.903L1201.98 372.436ZM1300.05 581.068L1202.06 593.515C1202.06 593.525 1202.06 593.535 1202.06 593.545L1103.83 581.068L1082.75 483.005L1082.93 483.005C1112.78 483.155 1140.06 498.355 1152.88 523.134L1111.32 555.132L1113.6 571.96L1130.43 574.242L1161.58 533.781C1183.81 544.977 1198.82 567.417 1202.01 593.118C1205.01 567.006 1219.6 543.992 1241.87 532.617L1273.91 574.242L1290.74 571.96L1293.02 555.132L1251.64 523.267C1264.7 498.828 1291.57 483.562 1321.14 483.019L1300.05 581.068ZM1300.05 822.566L1202.06 835.013C1202.06 835.023 1202.06 835.033 1202.06 835.043L1103.83 822.566L1082.75 724.501L1082.93 724.501C1112.78 724.652 1140.06 739.852 1152.88 764.632L1111.32 796.63L1113.6 813.458L1130.43 815.74L1161.58 775.277C1183.82 786.473 1198.82 808.914 1202.01 834.616C1205.01 808.504 1219.6 785.49 1241.87 774.114L1273.91 815.742L1290.74 813.46L1293.02 796.632L1251.64 764.767C1264.7 740.326 1291.56 725.059 1321.14 724.515L1300.05 822.566ZM1300.05 339.566L1202.06 352.013C1202.06 352.023 1202.06 352.033 1202.06 352.043L1103.83 339.566L1082.75 241.501L1082.93 241.501C1112.79 241.652 1140.06 256.852 1152.88 281.633L1111.32 313.63L1113.61 330.458L1130.43 332.74L1161.58 292.28C1183.81 303.475 1198.82 325.911 1202.01 351.608C1205.01 325.499 1219.6 302.489 1241.87 291.115L1273.91 332.74L1290.74 330.458L1293.02 313.63L1251.64 281.765C1264.7 257.325 1291.56 242.058 1321.14 241.515L1300.05 339.566ZM1300.05 98.0625L1202.06 110.509C1202.06 110.519 1202.06 110.529 1202.06 110.539L1103.83 98.0625L1082.75 -1.57186e-05L1082.93 0.000960852C1112.78 0.151548 1140.06 15.3509 1152.88 40.1299L1111.32 72.1279L1113.6 88.956L1130.43 91.2383L1161.58 50.7773C1183.81 61.972 1198.82 84.4093 1202.01 110.108C1205.01 83.9993 1219.6 60.9885 1241.86 49.6142L1273.91 91.2402L1290.74 88.958L1293.02 72.1299L1251.64 40.2656C1264.7 15.8257 1291.56 0.558533 1321.14 0.0146431L1300.05 98.0625ZM1132.23 521.245C1132.23 516.408 1128.31 512.486 1123.47 512.485C1118.64 512.485 1114.71 516.407 1114.71 521.245C1114.71 526.083 1118.64 530.005 1123.47 530.005C1128.31 530.005 1132.23 526.083 1132.23 521.245ZM1132.23 686.29C1132.23 681.453 1128.31 677.532 1123.47 677.531C1118.64 677.531 1114.71 681.453 1114.71 686.29C1114.71 691.128 1118.64 695.05 1123.47 695.05C1128.31 695.049 1132.23 691.128 1132.23 686.29ZM1132.23 762.743C1132.23 757.906 1128.31 753.985 1123.47 753.984C1118.64 753.984 1114.71 757.906 1114.71 762.743C1114.71 767.581 1118.64 771.503 1123.47 771.503C1128.31 771.503 1132.23 767.581 1132.23 762.743ZM1132.23 927.789C1132.23 922.952 1128.31 919.03 1123.47 919.029C1118.64 919.029 1114.71 922.952 1114.71 927.789C1114.71 932.626 1118.64 936.548 1123.47 936.548C1128.31 936.548 1132.23 932.626 1132.23 927.789ZM1132.23 38.2392C1132.23 33.4019 1128.31 29.4808 1123.48 29.4805C1118.64 29.4805 1114.72 33.4017 1114.72 38.2392C1114.72 43.0769 1118.64 46.999 1123.48 46.999C1128.31 46.9987 1132.23 43.0767 1132.23 38.2392ZM1132.23 203.284C1132.23 198.447 1128.31 194.525 1123.48 194.524C1118.64 194.524 1114.72 198.447 1114.72 203.284C1114.72 208.122 1118.64 212.044 1123.48 212.044C1128.31 212.044 1132.23 208.122 1132.23 203.284ZM1132.23 279.743C1132.23 274.906 1128.31 270.984 1123.48 270.983C1118.64 270.983 1114.72 274.905 1114.72 279.743C1114.72 284.581 1118.64 288.503 1123.48 288.503C1128.31 288.503 1132.23 284.581 1132.23 279.743ZM1132.23 444.788C1132.23 439.951 1128.31 436.03 1123.48 436.029C1118.64 436.029 1114.72 439.95 1114.72 444.788C1114.72 449.626 1118.64 453.548 1123.48 453.548C1128.31 453.548 1132.23 449.626 1132.23 444.788ZM1173.03 562.046C1173.03 557.208 1169.11 553.286 1164.27 553.286C1159.44 553.286 1155.51 557.208 1155.51 562.046C1155.51 566.883 1159.44 570.805 1164.27 570.805C1169.11 570.805 1173.03 566.883 1173.03 562.046ZM1173.03 803.541C1173.03 798.703 1169.11 794.781 1164.27 794.781C1159.44 794.781 1155.51 798.704 1155.51 803.541C1155.51 808.379 1159.44 812.301 1164.27 812.301C1169.11 812.301 1173.03 808.379 1173.03 803.541ZM1173.03 645.489C1173.03 640.652 1169.11 636.73 1164.27 636.729C1159.44 636.73 1155.51 640.652 1155.51 645.489C1155.51 650.327 1159.44 654.248 1164.27 654.248C1169.11 654.248 1173.03 650.327 1173.03 645.489ZM1173.03 886.986C1173.03 882.149 1169.11 878.228 1164.27 878.228C1159.44 878.228 1155.51 882.149 1155.51 886.986C1155.51 891.824 1159.44 895.746 1164.27 895.746C1169.11 895.746 1173.03 891.824 1173.03 886.986ZM1173.04 79.042C1173.04 74.2043 1169.11 70.2823 1164.28 70.2822C1159.44 70.2823 1155.52 74.2043 1155.52 79.042C1155.52 83.8795 1159.44 87.8007 1164.28 87.8008C1169.11 87.8007 1173.04 83.8795 1173.04 79.042ZM1173.04 320.544C1173.04 315.706 1169.11 311.784 1164.28 311.784C1159.44 311.784 1155.52 315.706 1155.52 320.544C1155.52 325.381 1159.44 329.303 1164.28 329.303C1169.11 329.303 1173.03 325.381 1173.04 320.544ZM1173.04 162.487C1173.04 157.65 1169.11 153.728 1164.28 153.728C1159.44 153.728 1155.52 157.65 1155.52 162.487C1155.52 167.325 1159.44 171.246 1164.28 171.246C1169.11 171.246 1173.04 167.325 1173.04 162.487ZM1173.04 403.988C1173.03 399.151 1169.11 395.23 1164.28 395.229C1159.44 395.23 1155.52 399.151 1155.52 403.988C1155.52 408.826 1159.44 412.748 1164.28 412.748C1169.11 412.748 1173.04 408.826 1173.04 403.988ZM1211.65 251.268L1201.96 272.081L1192.27 251.268L1161.05 241.395L1192.27 231.521L1201.96 210.708L1211.65 231.521L1242.88 241.395L1211.65 251.268ZM1211.65 492.77L1201.96 513.583L1192.27 492.77L1161.05 482.896L1192.27 473.023L1201.96 452.21L1211.65 473.023L1242.88 482.896L1211.65 492.77ZM1211.65 734.271L1201.96 755.085L1192.27 734.271L1161.05 724.398L1192.27 714.525L1201.96 693.712L1211.65 714.525L1242.88 724.398L1211.65 734.271ZM1321.14 241.487C1291.63 240.999 1265.11 225.032 1252.41 200.198L1293.02 168.932L1290.74 152.104L1273.91 149.821L1241.9 191.406C1219.89 179.741 1205.29 156.907 1202.09 130.955L1300.05 143.399L1321.14 241.487ZM1321.14 482.987C1291.63 482.499 1265.12 466.534 1252.41 441.703L1293.02 410.437L1290.74 393.608L1273.91 391.326L1241.9 432.911C1219.9 421.247 1205.29 398.411 1202.09 372.459L1300.05 384.903L1321.14 482.987ZM1321.14 724.491C1291.63 724.003 1265.12 708.037 1252.41 683.206L1293.02 651.938L1290.74 635.11L1273.91 632.828L1241.9 674.412C1219.9 662.748 1205.29 639.913 1202.09 613.961L1300.05 626.405L1321.14 724.491ZM1321.14 965.987C1291.63 965.498 1265.12 949.533 1252.41 924.702L1293.02 893.437L1290.74 876.608L1273.91 874.326L1241.9 915.908C1219.9 904.244 1205.29 881.41 1202.09 855.459L1300.05 867.902L1321.14 965.987ZM1248.28 79.042C1248.28 74.2043 1244.35 70.2822 1239.52 70.2822C1234.68 70.2822 1230.76 74.2043 1230.76 79.042C1230.76 83.8796 1234.68 87.8008 1239.52 87.8008C1244.35 87.8008 1248.28 83.8796 1248.28 79.042ZM1248.28 162.487C1248.28 157.65 1244.35 153.728 1239.52 153.728C1234.68 153.728 1230.76 157.65 1230.76 162.487C1230.76 167.325 1234.68 171.246 1239.52 171.246C1244.35 171.246 1248.28 167.325 1248.28 162.487ZM1248.28 320.544C1248.28 315.706 1244.35 311.784 1239.52 311.784C1234.68 311.784 1230.76 315.706 1230.76 320.544C1230.76 325.381 1234.68 329.303 1239.52 329.303C1244.35 329.303 1248.28 325.381 1248.28 320.544ZM1248.28 403.988C1248.28 399.151 1244.35 395.23 1239.52 395.229C1234.68 395.23 1230.76 399.151 1230.76 403.988C1230.76 408.826 1234.68 412.748 1239.52 412.748C1244.35 412.748 1248.28 408.826 1248.28 403.988ZM1248.28 562.046C1248.28 557.208 1244.35 553.286 1239.52 553.286C1234.68 553.286 1230.76 557.208 1230.76 562.046C1230.76 566.883 1234.68 570.805 1239.52 570.805C1244.35 570.805 1248.28 566.883 1248.28 562.046ZM1248.28 645.489C1248.28 640.652 1244.35 636.73 1239.52 636.729C1234.68 636.73 1230.76 640.652 1230.76 645.489C1230.76 650.327 1234.68 654.248 1239.52 654.248C1244.35 654.248 1248.28 650.327 1248.28 645.489ZM1248.28 803.541C1248.28 798.704 1244.35 794.782 1239.52 794.782C1234.68 794.782 1230.76 798.704 1230.76 803.541C1230.76 808.379 1234.68 812.301 1239.52 812.301C1244.35 812.301 1248.28 808.379 1248.28 803.541ZM1248.28 886.987C1248.28 882.15 1244.35 878.228 1239.52 878.228C1234.68 878.228 1230.76 882.15 1230.76 886.987C1230.76 891.825 1234.68 895.746 1239.52 895.746C1244.35 895.746 1248.28 891.825 1248.28 886.987ZM1289.07 38.2393C1289.07 33.4017 1285.15 29.4805 1280.31 29.4805C1275.48 29.4805 1271.56 33.4017 1271.56 38.2393C1271.56 43.0769 1275.48 46.9989 1280.31 46.999C1285.15 46.999 1289.07 43.0769 1289.07 38.2393ZM1289.07 203.284C1289.07 198.447 1285.15 194.524 1280.31 194.524C1275.48 194.524 1271.56 198.447 1271.56 203.284C1271.56 208.122 1275.48 212.044 1280.31 212.044C1285.15 212.044 1289.07 208.122 1289.07 203.284ZM1289.07 279.743C1289.07 274.906 1285.15 270.983 1280.31 270.983C1275.48 270.983 1271.56 274.906 1271.56 279.743C1271.56 284.581 1275.48 288.503 1280.31 288.503C1285.15 288.503 1289.07 284.581 1289.07 279.743ZM1289.07 444.788C1289.07 439.951 1285.15 436.029 1280.31 436.029C1275.48 436.029 1271.56 439.951 1271.56 444.788C1271.56 449.626 1275.48 453.548 1280.31 453.548C1285.15 453.548 1289.07 449.626 1289.07 444.788ZM1289.07 521.245C1289.07 516.408 1285.15 512.486 1280.31 512.486C1275.48 512.486 1271.56 516.408 1271.56 521.245C1271.56 526.083 1275.48 530.005 1280.31 530.005C1285.15 530.005 1289.07 526.083 1289.07 521.245ZM1289.07 686.29C1289.07 681.453 1285.15 677.531 1280.31 677.531C1275.48 677.531 1271.56 681.453 1271.56 686.29C1271.56 691.128 1275.48 695.05 1280.31 695.05C1285.15 695.05 1289.07 691.128 1289.07 686.29ZM1289.07 762.741C1289.07 757.904 1285.15 753.983 1280.31 753.982C1275.48 753.982 1271.56 757.904 1271.56 762.741C1271.56 767.579 1275.48 771.501 1280.31 771.501C1285.15 771.501 1289.07 767.579 1289.07 762.741ZM1289.07 927.789C1289.07 922.952 1285.15 919.029 1280.31 919.029C1275.48 919.029 1271.56 922.952 1271.56 927.789C1271.56 932.627 1275.48 936.548 1280.31 936.548C1285.15 936.548 1289.07 932.626 1289.07 927.789ZM1329.56 369.627L1322.18 389.557L1314.81 369.627L1287.59 362.252L1314.81 354.877L1322.18 334.946L1329.56 354.877L1356.77 362.252L1329.56 369.627ZM1329.56 611.127L1322.18 631.057L1314.81 611.127L1287.59 603.752L1314.81 596.377L1322.18 576.446L1329.56 596.377L1356.77 603.752L1329.56 611.127ZM1329.56 128.125L1322.18 148.055L1314.81 128.125L1287.6 120.75L1314.81 113.375L1322.18 93.4443L1329.56 113.375L1356.77 120.75L1329.56 128.125ZM1329.56 852.627L1322.18 872.557L1314.81 852.627L1287.6 845.252L1314.81 837.877L1322.18 817.946L1329.56 837.877L1356.77 845.252L1329.56 852.627ZM1442.27 130.932C1439.01 156.577 1424.01 178.945 1401.93 190.368L1370.72 149.824L1353.89 152.106L1351.61 168.935L1392.26 200.231C1379.71 225.366 1352.81 241.324 1323.03 241.496L1344.12 143.399L1442.27 130.932ZM1442.27 613.937C1439.01 639.582 1424.01 661.949 1401.93 673.372L1370.72 632.828L1353.89 635.11L1351.61 651.938L1392.26 683.235C1379.71 708.37 1352.81 724.327 1323.03 724.5L1344.12 626.405L1442.27 613.937ZM1442.27 372.436C1439.01 398.079 1424.01 420.445 1401.94 431.868L1370.72 391.326L1353.89 393.608L1351.61 410.437L1392.26 441.732C1379.71 466.866 1352.81 482.823 1323.03 482.996L1344.12 384.903L1442.27 372.436ZM1442.27 855.436C1439.01 881.079 1424.01 903.445 1401.94 914.868L1370.72 874.326L1353.89 876.608L1351.61 893.437L1392.26 924.733C1379.71 949.867 1352.81 965.824 1323.03 965.996L1344.12 867.902L1442.27 855.436ZM1344.12 339.566L1323.03 241.501L1323.22 241.501C1353.07 241.652 1380.35 256.853 1393.17 281.635L1351.61 313.632L1353.89 330.46L1370.72 332.742L1401.87 292.28C1424.22 303.538 1439.27 326.164 1442.35 352.043L1344.12 339.566ZM1344.12 581.068L1323.03 483.005L1323.22 483.005C1353.07 483.155 1380.35 498.356 1393.17 523.137L1351.61 555.134L1353.89 571.962L1370.72 574.244L1401.87 533.782C1424.22 545.04 1439.27 567.666 1442.35 593.545L1344.12 581.068ZM1344.12 822.566L1323.03 724.501L1323.22 724.501C1353.07 724.652 1380.35 739.852 1393.17 764.632L1351.61 796.631L1353.89 813.459L1370.72 815.741L1401.87 775.278C1424.23 786.536 1439.28 809.163 1442.35 835.043L1344.12 822.566ZM1344.12 98.0625L1323.03 -5.21544e-06L1323.22 0.000971355C1353.07 0.151507 1380.35 15.3508 1393.17 40.1299L1351.61 72.1279L1353.89 88.9561L1370.72 91.2383L1401.87 50.7773C1424.22 62.0345 1439.27 84.6601 1442.35 110.539L1344.12 98.0625ZM1372.52 38.2393C1372.52 33.4017 1368.6 29.4805 1363.76 29.4805C1358.92 29.4805 1355 33.4017 1355 38.2393C1355 43.0769 1358.92 46.999 1363.76 46.999C1368.6 46.999 1372.52 43.0769 1372.52 38.2393ZM1372.52 203.284C1372.52 198.446 1368.6 194.524 1363.76 194.524C1358.92 194.524 1355 198.447 1355 203.284C1355 208.122 1358.92 212.044 1363.76 212.044C1368.6 212.044 1372.52 208.122 1372.52 203.284ZM1372.52 279.743C1372.52 274.906 1368.6 270.983 1363.76 270.983C1358.92 270.983 1355 274.906 1355 279.743C1355 284.581 1358.92 288.503 1363.76 288.503C1368.6 288.503 1372.52 284.581 1372.52 279.743ZM1372.52 444.788C1372.52 439.951 1368.6 436.029 1363.76 436.029C1358.92 436.029 1355 439.95 1355 444.788C1355 449.626 1358.92 453.548 1363.76 453.548C1368.6 453.548 1372.52 449.626 1372.52 444.788ZM1372.52 521.245C1372.52 516.408 1368.6 512.485 1363.76 512.485C1358.92 512.485 1355 516.408 1355 521.245C1355 526.083 1358.92 530.005 1363.76 530.005C1368.6 530.005 1372.52 526.083 1372.52 521.245ZM1372.52 686.29C1372.52 681.453 1368.6 677.531 1363.76 677.531C1358.92 677.531 1355 681.453 1355 686.29C1355 691.128 1358.92 695.05 1363.76 695.05C1368.6 695.05 1372.52 691.128 1372.52 686.29ZM1372.52 762.741C1372.52 757.904 1368.6 753.983 1363.76 753.982C1358.92 753.982 1355 757.904 1355 762.741C1355 767.579 1358.92 771.501 1363.76 771.501C1368.6 771.501 1372.52 767.579 1372.52 762.741ZM1372.52 927.789C1372.52 922.952 1368.6 919.029 1363.76 919.029C1358.92 919.029 1355 922.951 1355 927.789C1355 932.627 1358.92 936.548 1363.76 936.548C1368.6 936.548 1372.52 932.626 1372.52 927.789ZM1413.32 79.042C1413.32 74.2043 1409.4 70.2822 1404.56 70.2822C1399.72 70.2824 1395.8 74.2044 1395.8 79.042C1395.8 83.8795 1399.72 87.8006 1404.56 87.8008C1409.4 87.8008 1413.32 83.8796 1413.32 79.042ZM1413.32 162.487C1413.32 157.65 1409.4 153.728 1404.56 153.728C1399.72 153.728 1395.8 157.65 1395.8 162.487C1395.8 167.325 1399.72 171.246 1404.56 171.246C1409.4 171.246 1413.32 167.325 1413.32 162.487ZM1413.32 320.544C1413.32 315.706 1409.4 311.784 1404.56 311.784C1399.72 311.784 1395.8 315.706 1395.8 320.544C1395.8 325.381 1399.72 329.303 1404.56 329.303C1409.4 329.303 1413.32 325.381 1413.32 320.544ZM1413.32 403.988C1413.32 399.151 1409.4 395.23 1404.56 395.229C1399.72 395.23 1395.8 399.151 1395.8 403.988C1395.8 408.826 1399.72 412.748 1404.56 412.748C1409.4 412.748 1413.32 408.826 1413.32 403.988ZM1413.32 562.046C1413.32 557.208 1409.4 553.286 1404.56 553.286C1399.72 553.286 1395.8 557.208 1395.8 562.046C1395.8 566.883 1399.72 570.805 1404.56 570.805C1409.4 570.804 1413.32 566.883 1413.32 562.046ZM1413.32 645.489C1413.32 640.652 1409.4 636.73 1404.56 636.729C1399.72 636.73 1395.8 640.652 1395.8 645.489C1395.8 650.327 1399.72 654.248 1404.56 654.248C1409.4 654.248 1413.32 650.327 1413.32 645.489ZM1413.32 803.541C1413.32 798.704 1409.4 794.783 1404.56 794.782C1399.72 794.782 1395.8 798.704 1395.8 803.541C1395.8 808.379 1399.72 812.301 1404.56 812.301C1409.4 812.3 1413.32 808.378 1413.32 803.541ZM1413.32 886.986C1413.32 882.149 1409.4 878.228 1404.56 878.228C1399.72 878.228 1395.8 882.149 1395.8 886.986C1395.8 891.824 1399.72 895.746 1404.56 895.746C1409.4 895.746 1413.32 891.824 1413.32 886.986Z" fill="#E6DCCE" fill-opacity="0.5"/>
</svg>
