<svg width="158" height="76" viewBox="0 0 158 76" fill="none" xmlns="http://www.w3.org/2000/svg">
<path d="M112.501 74.3233C112.211 74.4145 111.896 74.4642 111.548 74.4642C110.446 74.4642 109.717 73.934 109.328 73.3707L110.107 72.3186C110.132 73.0476 110.604 73.7932 111.432 73.7932C112.112 73.7932 112.459 73.3044 112.459 72.6748C112.459 71.863 111.855 71.4156 111.093 71.4156H110.977V71.018C111.673 70.8358 112.062 70.3801 112.062 69.85C112.062 69.4855 111.83 69.121 111.349 69.121H111.316C110.62 69.121 110.132 69.8748 110.107 70.6369L109.37 69.6677C109.759 69.0795 110.463 68.5742 111.499 68.5742C112.625 68.5742 113.495 69.1458 113.495 69.85C113.495 70.3884 112.973 70.902 112.186 71.0594C113.18 71.1671 113.901 71.8133 113.901 72.6748C113.901 73.4287 113.362 74.05 112.501 74.3233Z" fill="#8F6227"/>
<path d="M107.378 72.6178H107.402L107.22 74.4238H103.476V73.2888C104.312 72.7835 106.002 71.9054 106.002 70.2155V70.1658C106.002 69.5942 105.77 69.0474 105.282 69.0474C104.636 69.0474 104.246 69.851 104.221 70.6462L103.318 69.677C103.708 69.1137 104.387 68.5918 105.398 68.5918C106.549 68.5918 107.411 69.2297 107.436 70.2569V70.2983C107.436 71.9965 105.008 72.8746 104.163 73.2806H105.878C106.773 73.2806 107.27 73.0072 107.378 72.6178Z" fill="#8F6227"/>
<path d="M53.772 74.2167C53.4323 74.3823 53.0264 74.4652 52.5625 74.4652C52.0903 74.4652 51.6844 74.3823 51.3365 74.2167C50.6406 73.8936 50.185 73.3303 49.9613 72.6261C49.4974 71.1847 49.9613 69.4782 51.3365 68.832C51.6844 68.6746 52.0903 68.5918 52.5625 68.5918C53.0264 68.5918 53.4323 68.6746 53.772 68.832C54.4596 69.1634 54.9152 69.7184 55.1471 70.4143C55.3708 71.1184 55.3708 71.9137 55.1471 72.6178C54.9152 73.322 54.4678 73.8853 53.772 74.2167ZM51.9164 73.7693C52.0903 73.9267 52.2974 74.0096 52.546 74.0096C52.7945 74.0096 53.0016 73.9267 53.1755 73.7693C53.3412 73.6119 53.4738 73.4131 53.5815 73.1646C53.7886 72.6758 53.8714 72.0545 53.8714 71.5161C53.8714 70.4309 53.54 69.0474 52.546 69.0474C51.5519 69.0474 51.2288 70.4557 51.2288 71.5409C51.2288 72.3527 51.4193 73.3054 51.9164 73.7693Z" fill="#8F6227"/>
<path d="M47.8365 72.6178H47.8614L47.6791 74.4238H43.9347V73.2888C44.7714 72.7835 46.4614 71.9054 46.4614 70.2155V70.1658C46.4614 69.5942 46.2294 69.0474 45.7407 69.0474C45.0945 69.0474 44.7052 69.851 44.6803 70.6462L43.7773 69.677C44.1667 69.1137 44.846 68.5918 45.8566 68.5918C47.0081 68.5918 47.8697 69.2297 47.8945 70.2569V70.2983C47.8945 71.9965 45.4673 72.8746 44.6223 73.2806H46.3371C47.2318 73.2806 47.7288 73.0072 47.8365 72.6178Z" fill="#8F6227"/>
<path d="M143.627 47.5753L142.151 57.358H140.02L146.742 21.4516L146.25 19.1016H150.458L157.617 57.358H153.409L151.715 48.1218L143.627 47.5753ZM147.234 24.1296L143.791 46.7008L151.333 46.209L147.234 24.1296Z" fill="#8F6227"/>
<path d="M144.416 19.1016V21.233L135 20.1946V57.358H130.901V20.1946L121.432 21.233V19.1016H144.416Z" fill="#8F6227"/>
<path d="M119.687 57.358H106.68V19.1016H119.687V21.233L110.779 20.0306V32.6553L116.681 32.1088V34.2402L110.779 33.639V56.4289L119.687 55.2266V57.358Z" fill="#8F6227"/>
<path d="M95.0916 20.0305C92.9055 20.0305 91.6485 22.3805 91.6485 24.5666C91.6485 33.0377 104.82 39.0494 104.82 49.7065C104.82 55.1171 100.284 57.8497 94.8729 57.8497C91.0473 57.8497 88.2601 56.4287 85.6914 52.8764L86.6205 44.6239C88.1507 53.8054 91.4845 56.6473 94.709 56.6473C98.316 56.6473 100.721 53.3136 100.721 49.7065C100.721 41.1808 87.5496 33.9121 87.5496 25.3864C87.5496 21.0142 91.102 18.8281 94.5997 18.8281C98.0428 18.8281 99.8463 20.4677 101.158 22.3259L100.611 26.9713C99.573 22.6538 97.6056 20.0305 95.0916 20.0305Z" fill="#8F6227"/>
<path d="M61.7398 47.3018L60.2642 57.0846H58.1328L64.855 21.1782L64.3631 18.8281H68.5714L75.7308 57.0846H71.5226L69.8284 47.8484L61.7398 47.3018ZM65.3469 23.8561L61.9038 46.4274L69.4458 45.9355L65.3469 23.8561Z" fill="#8F6227"/>
<path d="M54.667 52.6577H46.3598V18.8281H50.4588V51.6194L54.667 50.5263V52.6577ZM54.667 57.0846H38.0527V18.8281H42.1516V56.1555L54.667 54.9531V57.0846Z" fill="#8F6227"/>
<path d="M34.7396 57.0846H21.7324V18.8281H34.7396V20.9596L25.8313 19.7572V32.3818L31.7337 31.8353V33.9667L25.8313 33.3656V56.1555L34.7396 54.9531V57.0846Z" fill="#8F6227"/>
<path d="M6.6129 57.0846H0V18.8281H6.6129C13.4991 18.8281 18.1445 27.6271 18.1445 37.9563C18.1445 48.2856 12.8979 57.0846 6.6129 57.0846ZM4.0989 19.9758V55.9369H5.68381C11.4223 55.6636 14.0456 46.4274 14.0456 37.9563C14.0456 29.376 11.9141 19.9758 6.06638 19.9758H4.0989Z" fill="#8F6227"/>
<path d="M87.106 13.2323L89.2729 7.09468L89.0346 6.4707H90.5435L93.0621 13.2323L94.0265 14.6958H91.0768C91.2356 14.2647 91.3263 13.8336 91.3263 13.3685C91.3263 13.1643 91.3037 12.9487 91.2696 12.7332C90.4982 12.2907 89.6813 12.0411 88.6149 12.0411H88.4334C88.2972 12.5176 88.2291 12.9601 88.2291 13.3798C88.2291 13.8336 88.3086 14.2647 88.4674 14.6958H86.2324L87.106 13.2323ZM88.6943 11.3037H90.8385L89.738 8.34263L88.6943 11.3037Z" fill="#8F6227"/>
<path d="M78.1073 7.74135L77.6875 6.4707H79.9452L79.5254 7.74135V13.4139L79.9452 14.6958H77.6875L78.1073 13.4139V7.74135Z" fill="#8F6227"/>
<path d="M64.4764 7.93421L63.5234 6.4707H66.4731C66.3143 6.90181 66.2236 7.33293 66.2236 7.80942C66.2236 8.24053 66.303 8.71702 66.4618 9.22754L67.9026 13.0849L69.264 9.22754C69.4229 8.70567 69.5023 8.22918 69.5023 7.77538C69.5023 7.32158 69.4229 6.89047 69.264 6.4707H71.499L70.6254 7.93421L68.243 14.6958H67.0064L64.4764 7.93421Z" fill="#8F6227"/>
<path d="M78.8063 0L79.3969 1.868L80.642 2.44753L79.3969 3.02706L78.8063 4.89506L78.2158 3.02706L76.9707 2.44753L78.2158 1.868L78.8063 0Z" fill="#8F6227"/>
<path d="M74.2211 72.3432C74.5301 73.1111 75.0452 73.4108 75.579 73.4108C76.0378 73.4108 76.6465 73.1298 77.1241 72.5492L77.3021 73.5981C76.7308 73.9071 76.1315 74.085 75.3542 74.085C73.9963 74.085 73.0318 73.0736 73.0318 71.6315C73.0318 70.1893 74.0338 69.178 75.3542 69.178C76.6934 69.178 77.1803 70.1144 77.1803 70.9011C77.1803 71.0509 77.171 71.2007 77.1335 71.3318C77.0305 71.3693 76.7496 71.4629 76.684 71.4817L74.2211 72.3432ZM75.7756 71.1539C76.094 71.0322 76.2532 70.8168 76.2532 70.592C76.2532 70.2174 75.9161 69.796 75.3074 69.796C75.1857 69.796 75.0452 69.8148 74.9047 69.8522C74.3522 70.002 74.0057 70.5546 74.0057 71.2756C74.0057 71.4348 74.0151 71.594 74.0525 71.7626L75.7756 71.1539ZM80.116 73.4763C80.4625 73.4763 80.7715 73.3078 80.7715 73.0549C80.7715 72.8021 80.1909 72.39 79.3762 71.875C78.5708 71.3599 78.1681 70.8636 78.1681 70.2923C78.1681 69.7211 78.5802 69.178 79.6478 69.178C80.4157 69.178 80.8745 69.3746 81.4739 69.6649L81.2959 70.7138C80.7996 70.1519 80.1535 69.7867 79.6946 69.7867C79.4324 69.7867 79.2451 69.9084 79.2451 70.1425C79.2451 70.489 79.6478 70.7138 80.3407 71.2288C81.2304 71.8843 81.8578 72.2402 81.8578 72.8864C81.8578 73.57 81.0806 74.085 79.9006 74.085C79.1233 74.085 78.5521 73.879 77.9528 73.5981L78.1307 72.5492C78.8986 73.186 79.6571 73.4763 80.116 73.4763ZM82.7358 69.2903L83.5505 68.1197H83.8127V69.2903H85.3298V69.899H83.8127V72.3807C83.8127 73.1017 83.9344 73.4763 84.3371 73.4763C84.6555 73.4763 85.0395 73.3359 85.4234 72.9706L85.5732 73.6168C85.2174 73.9071 84.6274 74.085 84.0187 74.085C83.0822 74.085 82.7358 73.4763 82.7358 72.5399V69.899H82.2863V69.2903H82.7358Z" fill="#8F6227"/>
</svg>
